<svg width="40" height="40" viewBox="0 0 40 40" fill="none" xmlns="http://www.w3.org/2000/svg">
<g id="Brazil">
<g clip-path="url(#clip0_46_2)">
<path id="rect2216" d="M-10 0H50.0841V40H-10V0Z" fill="#009B3A"/>
<path id="path1940" d="M3 20.4998L20.2895 30.9996L37.5789 20.4998L20.2895 10L3 20.4998Z" fill="#FEDF00"/>
<path id="circle1942" d="M20.2542 27.4331C24.0836 27.4331 27.188 24.3287 27.188 20.4993C27.188 16.6698 24.0836 13.5654 20.2542 13.5654C16.4247 13.5654 13.3203 16.6698 13.3203 20.4993C13.3203 24.3287 16.4247 27.4331 20.2542 27.4331Z" fill="#002776"/>
<g id="Clip path group">
<mask id="mask0_46_2" style="mask-type:luminance" maskUnits="userSpaceOnUse" x="13" y="13" width="15" height="15">
<g id="band">
<path id="circle1944" d="M20.262 27.4341C24.0914 27.4341 27.1958 24.3297 27.1958 20.5002C27.1958 16.6708 24.0914 13.5664 20.262 13.5664C16.4325 13.5664 13.3281 16.6708 13.3281 20.5002C13.3281 24.3297 16.4325 27.4341 20.262 27.4341Z" fill="white"/>
</g>
</mask>
<g mask="url(#mask0_46_2)">
<path id="path1947" d="M-0.539062 34.3667C-0.539062 29.9006 1.23508 25.6175 4.39306 22.4595C7.55105 19.3015 11.8342 17.5273 16.3003 17.5273C20.7663 17.5273 25.0495 19.3015 28.2075 22.4595C31.3654 25.6175 33.1396 29.9006 33.1396 34.3667H32.149C32.149 30.1633 30.4793 26.1321 27.507 23.1599C24.5348 20.1877 20.5036 18.5179 16.3003 18.5179C12.0969 18.5179 8.06571 20.1877 5.09348 23.1599C2.12126 26.1321 0.451486 30.1633 0.451486 34.3667H-0.539062Z" fill="white"/>
</g>
</g>
<g id="g1979">
<path id="use1949" fill-rule="evenodd" clip-rule="evenodd" d="M14.352 18.4734C14.4302 18.4638 14.501 18.4201 14.5488 18.3519C14.5965 18.2836 14.6174 18.1964 14.6067 18.1095C14.596 18.0226 14.5547 17.943 14.4919 17.8884C14.429 17.8337 14.3497 17.8084 14.2715 17.818C14.1933 17.8276 14.1225 17.8713 14.0747 17.9396C14.027 18.0078 14.0061 18.095 14.0168 18.1819C14.0275 18.2689 14.0688 18.3484 14.1316 18.4031C14.1945 18.4577 14.2738 18.4831 14.352 18.4734M14.337 18.3517C14.383 18.3461 14.4244 18.319 14.4521 18.2763C14.4799 18.2337 14.4917 18.1791 14.485 18.1245C14.4783 18.0698 14.4536 18.0197 14.4164 17.985C14.3791 17.9504 14.3324 17.9341 14.2865 17.9397C14.2405 17.9454 14.1991 17.9725 14.1714 18.0151C14.1436 18.0577 14.1318 18.1124 14.1385 18.167C14.1452 18.2216 14.1699 18.2718 14.2071 18.3064C14.2444 18.3411 14.2911 18.3574 14.337 18.3517" fill="#009B3A"/>
<g id="use1951">
<path id="use1902" fill-rule="evenodd" clip-rule="evenodd" d="M14.8976 18.4146L15.02 18.4061L15.0029 18.1614L15.2664 18.143C15.3213 18.1391 15.3724 18.1136 15.4085 18.0721C15.4446 18.0305 15.4628 17.9763 15.4589 17.9214C15.4551 17.8665 15.4296 17.8154 15.388 17.7793C15.3465 17.7432 15.2923 17.725 15.2374 17.7289L14.861 17.7552L14.8976 18.4146ZM14.9943 18.039L15.2484 18.0213C15.2709 18.0197 15.2918 18.0093 15.3066 17.9923C15.3213 17.9753 15.3287 17.9531 15.3272 17.9307C15.3256 17.9082 15.3152 17.8873 15.2982 17.8725C15.2812 17.8577 15.259 17.8503 15.2366 17.8519L14.9825 17.8696L14.9943 18.039Z" fill="#009B3A"/>
<path id="path1904" d="M15.4543 18.3755C15.4477 18.2813 15.4332 18.0743 15.2921 18.0842L15.1133 18.0967C15.3203 18.0822 15.3348 18.2892 15.3414 18.3833" fill="#009B3A"/>
</g>
<path id="use1953" fill-rule="evenodd" clip-rule="evenodd" d="M15.7244 18.362L16.0357 18.3566C16.0728 18.356 16.1095 18.348 16.1436 18.3332C16.1777 18.3184 16.2085 18.297 16.2343 18.2702C16.2601 18.2435 16.2804 18.2119 16.2941 18.1774C16.3077 18.1428 16.3144 18.1059 16.3137 18.0687L16.3121 17.9744C16.3114 17.9372 16.3035 17.9006 16.2886 17.8665C16.2738 17.8324 16.2524 17.8016 16.2257 17.7757C16.199 17.7499 16.1674 17.7296 16.1328 17.716C16.0982 17.7024 16.0613 17.6957 16.0242 17.6963L15.7129 17.7018L15.7244 18.362ZM15.8449 18.2373L16.0241 18.2342C16.0716 18.2333 16.1169 18.2137 16.1499 18.1795C16.1829 18.1453 16.201 18.0993 16.2002 18.0518L16.1992 17.9952C16.1984 17.9477 16.1787 17.9024 16.1445 17.8694C16.1103 17.8364 16.0644 17.8183 16.0169 17.8191L15.8377 17.8223L15.8449 18.2373Z" fill="#009B3A"/>
<path id="use1955" d="M16.5629 18.3538L17.1569 18.3746L17.1611 18.252L16.6803 18.2352L16.6862 18.0655L17.0634 18.0787L17.0673 17.9655L16.6902 17.9524L16.6948 17.8204L17.1473 17.8362L17.1516 17.7136L16.5859 17.6938L16.5629 18.3538Z" fill="#009B3A"/>
<path id="use1957" d="M17.3995 18.3883L17.5123 18.3982L17.5517 17.9471L17.6438 18.4097L17.7472 18.4187L17.9182 17.9792L17.8788 18.4303L17.9915 18.4401L18.0491 17.7823L17.8846 17.7679L17.7136 18.2075L17.6215 17.7449L17.457 17.7305L17.3995 18.3883Z" fill="#009B3A"/>
<path id="use1959" d="M18.7704 18.5442L19.2586 18.6281L19.2777 18.5165L18.9012 18.4518L18.9267 18.3031L19.2336 18.3558L19.2527 18.2442L18.9459 18.1915L18.9635 18.0892L19.3284 18.1519L19.3476 18.0404L18.8711 17.9585L18.7704 18.5442Z" fill="#009B3A"/>
<path id="use1961" fill-rule="evenodd" clip-rule="evenodd" d="M20.0243 18.7907L20.143 18.8214L20.2044 18.5839L20.4602 18.6501C20.5135 18.6639 20.57 18.6559 20.6175 18.628C20.6649 18.6 20.6993 18.5544 20.7131 18.5011C20.7269 18.4478 20.7189 18.3912 20.691 18.3438C20.663 18.2964 20.6174 18.262 20.5641 18.2482L20.1988 18.1537L20.0243 18.7907ZM20.2351 18.4652L20.4817 18.529C20.5035 18.5346 20.5267 18.5314 20.5461 18.5199C20.5655 18.5085 20.5796 18.4898 20.5852 18.468C20.5908 18.4462 20.5876 18.4231 20.5762 18.4037C20.5647 18.3843 20.5461 18.3702 20.5243 18.3646L20.2777 18.3008L20.2351 18.4652Z" fill="#009B3A"/>
<g id="use1963">
<path id="use1902_2" fill-rule="evenodd" clip-rule="evenodd" d="M20.8385 19.0068L20.9555 19.0436L21.0293 18.8097L21.2812 18.8891C21.3337 18.9057 21.3906 18.9007 21.4394 18.8753C21.4882 18.8499 21.525 18.8061 21.5415 18.7536C21.5581 18.7011 21.5531 18.6442 21.5277 18.5954C21.5023 18.5465 21.4585 18.5098 21.406 18.4933L21.0461 18.3798L20.8385 19.0068ZM21.0661 18.6927L21.3091 18.7693C21.3305 18.7761 21.3538 18.7741 21.3738 18.7637C21.3938 18.7533 21.4088 18.7354 21.4156 18.7139C21.4223 18.6924 21.4203 18.6691 21.4099 18.6492C21.3995 18.6292 21.3816 18.6142 21.3601 18.6074L21.1172 18.5308L21.0661 18.6927Z" fill="#009B3A"/>
<path id="path1904_2" d="M21.3753 19.1752C21.4037 19.0852 21.4661 18.8873 21.3311 18.8447L21.1602 18.7908C21.3581 18.8532 21.2957 19.0512 21.2673 19.1412" fill="#009B3A"/>
</g>
<path id="use1965" fill-rule="evenodd" clip-rule="evenodd" d="M21.9123 19.3691C21.9861 19.3967 22.0691 19.3906 22.143 19.3521C22.2169 19.3136 22.2756 19.2459 22.3063 19.1639C22.337 19.0819 22.337 18.9922 22.3065 18.9147C22.276 18.8372 22.2174 18.7782 22.1436 18.7506C22.0698 18.723 21.9868 18.7291 21.9129 18.7675C21.839 18.806 21.7803 18.8737 21.7496 18.9558C21.7189 19.0378 21.7188 19.1274 21.7494 19.2049C21.7799 19.2824 21.8385 19.3415 21.9123 19.3691M21.9553 19.2542C21.9986 19.2704 22.0479 19.2655 22.0921 19.2405C22.1364 19.2155 22.1721 19.1725 22.1914 19.1209C22.2107 19.0694 22.212 19.0135 22.1949 18.9656C22.1779 18.9177 22.144 18.8816 22.1006 18.8654C22.0573 18.8492 22.008 18.8542 21.9637 18.8791C21.9195 18.9041 21.8838 18.9471 21.8645 18.9987C21.8452 19.0503 21.8439 19.1062 21.861 19.1541C21.878 19.202 21.9119 19.238 21.9553 19.2542" fill="#009B3A"/>
<g id="use1967">
<g id="Clip path group_2">
<mask id="mask1_46_2" style="mask-type:luminance" maskUnits="userSpaceOnUse" x="22" y="18" width="2" height="2">
<g id="gcut">
<path id="path1889" d="M22.4086 19.5629L22.6719 18.9573L23.2169 19.1943L22.9536 19.7999L22.4086 19.5629ZM22.8579 19.2748L22.8127 19.3786L23.0853 19.4971L23.1304 19.3933L22.8579 19.2748Z" fill="white"/>
</g>
</mask>
<g mask="url(#mask1_46_2)">
<path id="use1892" fill-rule="evenodd" clip-rule="evenodd" d="M22.6791 19.6816C22.7514 19.713 22.8346 19.7113 22.9104 19.6767C22.9862 19.6421 23.0484 19.5776 23.0833 19.4973C23.1182 19.417 23.123 19.3275 23.0966 19.2485C23.0702 19.1695 23.0147 19.1074 22.9424 19.076C22.8702 19.0446 22.787 19.0463 22.7112 19.0809C22.6354 19.1155 22.5732 19.18 22.5383 19.2603C22.5033 19.3406 22.4986 19.4301 22.525 19.5091C22.5514 19.5881 22.6068 19.6502 22.6791 19.6816M22.728 19.5691C22.7705 19.5876 22.8199 19.5852 22.8654 19.5626C22.911 19.54 22.9489 19.4989 22.9708 19.4484C22.9928 19.3979 22.997 19.3422 22.9825 19.2934C22.968 19.2447 22.936 19.2069 22.8935 19.1885C22.8511 19.17 22.8017 19.1724 22.7561 19.195C22.7106 19.2177 22.6727 19.2587 22.6507 19.3092C22.6288 19.3597 22.6246 19.4154 22.6391 19.4642C22.6536 19.5129 22.6856 19.5507 22.728 19.5691" fill="#009B3A"/>
</g>
</g>
<path id="rect1894" d="M22.8615 19.3986L23.0908 19.4983L23.0532 19.5848L22.8239 19.4851L22.8615 19.3986Z" fill="#009B3A"/>
<path id="rect1896" d="M23 19.4603L23.0865 19.4979L22.9549 19.8007L22.8683 19.7631L23 19.4603Z" fill="#009B3A"/>
</g>
<g id="use1969">
<path id="use1902_3" fill-rule="evenodd" clip-rule="evenodd" d="M23.1819 19.9045L23.2917 19.9592L23.4011 19.7397L23.6375 19.8575C23.6868 19.8821 23.7438 19.8861 23.796 19.8686C23.8482 19.8512 23.8913 19.8137 23.9158 19.7644C23.9404 19.7151 23.9444 19.6581 23.9269 19.6059C23.9095 19.5537 23.872 19.5106 23.8227 19.4861L23.485 19.3177L23.1819 19.9045ZM23.4558 19.6299L23.6838 19.7436C23.7039 19.7536 23.7272 19.7552 23.7486 19.7481C23.77 19.741 23.7876 19.7256 23.7976 19.7055C23.8077 19.6853 23.8093 19.662 23.8022 19.6406C23.795 19.6193 23.7797 19.6017 23.7595 19.5916L23.5316 19.478L23.4558 19.6299Z" fill="#009B3A"/>
<path id="path1904_3" d="M23.6836 20.155C23.7257 20.0706 23.8183 19.8848 23.6917 19.8217L23.5312 19.7417C23.717 19.8343 23.6244 20.02 23.5823 20.1045" fill="#009B3A"/>
</g>
<path id="use1971" d="M23.9248 20.2832L24.4421 20.5759L24.5025 20.4692L24.0837 20.2323L24.1674 20.0845L24.4958 20.2703L24.5515 20.1717L24.2231 19.9859L24.2881 19.871L24.6823 20.094L24.7426 19.9872L24.25 19.7085L23.9248 20.2832Z" fill="#009B3A"/>
<path id="use1973" d="M24.8954 20.6073C24.8599 20.663 24.8959 20.7251 24.9755 20.7758C25.055 20.8265 25.1092 20.8246 25.1321 20.7889C25.2043 20.6755 24.7867 20.5101 24.9154 20.3125C25.0264 20.1427 25.2163 20.2749 25.2879 20.3205C25.3595 20.3661 25.4745 20.4841 25.3851 20.6201L25.2637 20.5428C25.3017 20.4831 25.26 20.4257 25.1963 20.3852C25.1347 20.3459 25.0846 20.328 25.0478 20.3856C24.9863 20.4779 25.3955 20.6519 25.2701 20.8488C25.1776 20.994 25.0166 20.9306 24.9092 20.8622C24.8177 20.8039 24.681 20.6665 24.7701 20.5275L24.8954 20.6073Z" fill="#009B3A"/>
<path id="use1975" d="M25.6041 21.0761C25.5657 21.1298 25.5984 21.1937 25.6752 21.2485C25.752 21.3033 25.8062 21.3043 25.8309 21.2698C25.909 21.1603 25.5006 20.9733 25.6395 20.7827C25.7592 20.6189 25.9419 20.7608 26.011 20.8101C26.0801 20.8595 26.1888 20.9833 26.0924 21.1144L25.9753 21.0309C26.0163 20.9733 25.9776 20.9138 25.9162 20.87C25.8567 20.8275 25.8076 20.807 25.7679 20.8627C25.7016 20.9515 26.1012 21.1468 25.9656 21.3368C25.8656 21.477 25.7082 21.4053 25.6045 21.3313C25.5162 21.2683 25.3868 21.1239 25.4831 20.9898L25.6041 21.0761Z" fill="#009B3A"/>
<path id="use1977" fill-rule="evenodd" clip-rule="evenodd" d="M26.2705 21.8353C26.3322 21.8843 26.413 21.9041 26.4952 21.8904C26.5773 21.8766 26.6541 21.8304 26.7086 21.7618C26.7631 21.6933 26.7909 21.6081 26.7858 21.5249C26.7808 21.4418 26.7433 21.3675 26.6816 21.3184C26.6199 21.2694 26.5391 21.2496 26.4569 21.2633C26.3748 21.2771 26.298 21.3233 26.2435 21.3919C26.189 21.4604 26.1612 21.5456 26.1663 21.6288C26.1713 21.7119 26.2088 21.7862 26.2705 21.8353M26.3469 21.7393C26.3831 21.7681 26.4314 21.7786 26.4813 21.7685C26.5311 21.7584 26.5784 21.7286 26.6126 21.6855C26.6469 21.6424 26.6654 21.5897 26.664 21.5388C26.6626 21.488 26.6415 21.4432 26.6053 21.4144C26.569 21.3856 26.5207 21.3751 26.4708 21.3852C26.421 21.3953 26.3737 21.4251 26.3395 21.4682C26.3052 21.5113 26.2867 21.564 26.2881 21.6149C26.2895 21.6657 26.3106 21.7105 26.3469 21.7393" fill="#009B3A"/>
</g>
</g>
</g>
<defs>
<clipPath id="clip0_46_2">
<rect width="40" height="40" rx="20" fill="white"/>
</clipPath>
</defs>
</svg>
