<svg width="290" height="291" viewBox="0 0 290 291" fill="none" xmlns="http://www.w3.org/2000/svg">
<path d="M231.907 45.0628C263.122 79.7017 275.004 120.785 266.143 162.875C258.49 199.931 230.698 235.577 196.664 252.292C164.643 268 131.816 270.216 98.9901 258.938C84.8928 253.903 77.4414 249.875 55.6914 234.973C52.872 233.16 56.0942 237.188 62.5387 243.834C93.5526 276.056 151.351 282.098 200.289 258.334C222.844 247.459 248.219 222.688 259.698 200.736C279.837 161.868 280.441 113.736 260.907 74.2642C254.664 61.5767 238.528 41.8406 231.907 41.8406L223.851 36.0003L231.907 45.0628Z" fill="#404040"/>
<path d="M107.766 6.96082C82.592 13.0025 54.1962 31.3289 36.2726 52.6761C25.599 65.7664 12.7101 91.1414 8.48091 108.461C3.44619 128.398 5.25869 167.266 12.3073 186.6C22.1754 214.593 41.5087 239.968 64.2656 255.273C71.1129 259.905 94.0505 268.614 94.8561 268.614C95.6616 268.614 72.9254 256.884 65.0712 249.03C42.3142 225.669 25.3976 197.475 18.7517 171.898C14.9254 156.794 14.9254 127.391 18.7517 110.877C29.224 66.1692 66.4809 28.7108 111.793 17.0303C127.3 13.0025 156.3 13.0025 171.807 16.8289C194.363 22.6691 216.525 31.1417 233.442 46.6486C248.546 60.1417 250.358 56.1847 233.442 39.4694C215.115 21.3444 198.995 12.5997 175.835 6.75943C160.932 2.93304 123.675 3.13443 107.766 6.96082Z" fill="#404040"/>
<path d="M134.931 20.0748C88.8125 28.3317 54.7778 53.304 35.0417 92.3734C17.1181 128.623 15.3056 165.276 29.6042 202.936C33.632 213.811 37.4583 219.651 47.125 229.116C78.7431 260.533 123.451 273.221 165.139 262.748C191.521 256.103 205.819 248.047 225.556 228.311C251.938 202.13 263.819 174.339 263.819 138.491C263.819 87.9428 231.597 37.3942 191.319 24.7067C178.632 20.8803 145.806 18.0609 134.931 20.0748ZM124.257 103.651C131.91 106.471 138.556 112.915 143.389 122.38C146.611 128.623 147.215 133.255 146.611 144.936C146.007 157.623 145.201 160.644 139.764 167.29C130.299 179.172 122.847 181.991 101.299 181.991H82.5695V141.714V101.436H100.493C110.361 101.436 121.035 102.443 124.257 103.651ZM207.431 108.485V115.533H190.313H173.194V124.596V133.658H189.306H205.417V140.707V147.755H189.306H173.194V164.873V181.991H166.146H159.097V141.714V101.436H183.264H207.431V108.485Z" fill="#B97756"/>
<path d="M51.3352 132.233V194.116H102.734C143.643 194.116 161.475 191.26 186.65 181.74C253.784 156.51 253.784 107.955 186.65 82.7256C161.475 73.205 143.643 70.3489 102.734 70.3489H51.3352V132.233Z" fill="#B97756"/>
<path d="M261.604 81.297C279.528 120.568 276.91 169.707 255.16 208.172C247.305 222.471 219.715 250.061 205.417 257.915C199.375 261.54 187.09 266.776 178.229 269.797C164.132 274.63 159.097 275.235 136.944 275.235C115.194 275.235 109.555 274.63 95.8611 269.998C77.9374 264.158 77.9374 265.568 95.6597 274.228C129.694 290.943 178.833 290.943 212.264 274.429C248.312 256.304 276.305 219.45 283.958 180.38C287.583 162.86 285.569 126.005 280.333 111.505C275.097 96.804 267.243 81.6998 261 74.2484C255.764 68.2067 255.764 68.2067 261.604 81.297Z" fill="#B97756"/>
<path d="M142.93 147.421C112.769 147.421 88.0942 123.979 88.0942 95.3252C118.255 95.3252 142.93 118.767 142.93 147.421Z" stroke="#252525" stroke-width="10" stroke-linecap="round" stroke-linejoin="round"/>
<path d="M142.93 147.421C173.091 147.421 197.766 123.979 197.766 95.3252C167.605 95.3252 142.93 118.767 142.93 147.421Z" stroke="#252525" stroke-width="10" stroke-linecap="round" stroke-linejoin="round"/>
<path d="M142.93 123.106C163.949 103.137 163.949 70.1436 142.93 49.301C121.911 70.1366 121.911 103.137 142.93 123.106Z" stroke="#252525" stroke-width="10" stroke-linecap="round" stroke-linejoin="round"/>
<path d="M142.93 190.832C112.769 190.832 88.0942 167.39 88.0942 138.736C118.255 138.736 142.93 162.178 142.93 190.832Z" stroke="#252525" stroke-width="10" stroke-linecap="round" stroke-linejoin="round"/>
<path d="M142.93 190.832C173.091 190.832 197.766 167.39 197.766 138.736C167.605 138.736 142.93 162.178 142.93 190.832Z" stroke="#252525" stroke-width="10" stroke-linecap="round" stroke-linejoin="round"/>
<path d="M142.93 223.301V192.956" stroke="#252525" stroke-width="10" stroke-linecap="round" stroke-linejoin="round"/>
<path d="M142.93 51.5019V49.301" stroke="#252525" stroke-width="10" stroke-linecap="round" stroke-linejoin="round"/>
<path d="M191.565 95.3252H193.309" stroke="#252525" stroke-width="10" stroke-linecap="round" stroke-linejoin="round"/>
<path d="M212.608 72.093L68.875 213.194" stroke="white" stroke-width="6" stroke-miterlimit="10" stroke-linecap="round"/>
<path d="M219.93 69.7253L65.9302 220.296" stroke="#252525" stroke-width="8" stroke-miterlimit="10" stroke-linecap="round"/>
</svg>
