<svg width="302" height="315" viewBox="0 0 302 315" fill="none" xmlns="http://www.w3.org/2000/svg">
<rect x="36" y="41.9321" width="257" height="259" rx="128.5" fill="#B97756"/>
<path d="M111.13 23.0429C88.1049 29.0121 62.1323 47.1187 45.7382 68.2098C35.9755 81.143 24.1865 106.214 20.3182 123.325C15.7131 143.024 17.3709 181.425 23.8181 200.527C32.844 228.184 56.4918 256.532 79.9031 270.605C106.2 286.412 126.551 282.078 126.551 286.412C178.361 291.354 82.6471 264.677 73.0431 254.019C63.1753 243.067 35.7912 211.599 29.7125 186.329C26.2127 171.406 26.2127 142.029 29.7125 125.713C39.2911 81.541 73.3687 44.5321 114.814 32.9916C128.998 29.0122 155.523 29.0122 169.707 32.7927C190.338 38.5629 210.608 46.9337 226.081 62.2546C239.897 75.5858 246.296 69.9577 230.822 53.4429C214.06 35.5354 194.574 28.6142 173.391 22.844C159.76 19.0635 125.682 19.2624 111.13 23.0429Z" fill="url(#paint0_linear_136_2225)"/>
<path d="M188.123 284.466C210.963 277.71 236.394 258.722 252.164 237.08C261.544 223.818 272.595 198.356 275.962 181.12C279.99 161.274 273.511 123.32 266.51 104.449C256.681 77.1151 231.844 51.9037 209.191 36.4571C202.797 32.0977 166.661 22.6282 165.924 22.6535C113.996 19.4896 206.814 39.8126 214.221 47.3224C229.435 62.7479 254.994 95.0847 261.808 120.133C265.741 134.929 269.525 162.628 266.503 179.056C258.219 223.534 225.239 261.693 184.151 274.649C170.091 279.112 143.579 280.022 129.292 276.73C108.503 271.67 83.311 263.504 67.3986 248.721C53.2011 235.87 56.3453 240.329 72.2927 256.305C89.5694 273.629 104.559 281.759 125.9 286.8C139.635 290.111 173.689 288.744 188.123 284.466Z" fill="url(#paint1_linear_136_2225)"/>
<path d="M151 167.091C126.323 167.091 106.134 146.748 106.134 121.881C130.812 121.881 151 142.224 151 167.091Z" stroke="#252525" stroke-width="10" stroke-linecap="round" stroke-linejoin="round"/>
<path d="M151 167.091C175.677 167.091 195.866 146.748 195.866 121.882C171.188 121.882 151 142.225 151 167.091Z" stroke="#252525" stroke-width="10" stroke-linecap="round" stroke-linejoin="round"/>
<path d="M151 145.99C168.198 128.66 168.198 100.028 151 81.9409C133.802 100.022 133.802 128.66 151 145.99Z" stroke="#252525" stroke-width="10" stroke-linecap="round" stroke-linejoin="round"/>
<path d="M151 204.764C126.323 204.764 106.134 184.421 106.134 159.554C130.812 159.554 151 179.897 151 204.764Z" stroke="#252525" stroke-width="10" stroke-linecap="round" stroke-linejoin="round"/>
<path d="M151 204.764C175.677 204.764 195.866 184.421 195.866 159.555C171.188 159.555 151 179.898 151 204.764Z" stroke="#252525" stroke-width="10" stroke-linecap="round" stroke-linejoin="round"/>
<path d="M151 232.941V206.607" stroke="#252525" stroke-width="10" stroke-linecap="round" stroke-linejoin="round"/>
<path d="M151 83.8509V81.9409" stroke="#252525" stroke-width="10" stroke-linecap="round" stroke-linejoin="round"/>
<path d="M190.793 121.882H192.219" stroke="#252525" stroke-width="10" stroke-linecap="round" stroke-linejoin="round"/>
<path d="M214 99.6655L88 230.333" stroke="#252525" stroke-width="8" stroke-miterlimit="10" stroke-linecap="round"/>
<defs>
<linearGradient id="paint0_linear_136_2225" x1="-165.317" y1="-38.0922" x2="228.331" y2="26.7973" gradientUnits="userSpaceOnUse">
<stop offset="0.288243" stop-color="#A0522D" stop-opacity="0"/>
<stop offset="0.723095" stop-color="#F4A460"/>
</linearGradient>
<linearGradient id="paint1_linear_136_2225" x1="464.392" y1="335.969" x2="71.2734" y2="283.068" gradientUnits="userSpaceOnUse">
<stop offset="0.288243" stop-color="#A0522D" stop-opacity="0"/>
<stop offset="0.723095" stop-color="#F4A460"/>
</linearGradient>
</defs>
</svg>
