<svg width="293" height="327" viewBox="0 0 293 327" fill="none" xmlns="http://www.w3.org/2000/svg">
<path d="M146.5 196.573C105.49 196.573 71.9399 163.023 71.9399 122.013C112.95 122.013 146.5 155.563 146.5 196.573Z" stroke="#252525" stroke-width="10" stroke-linecap="round" stroke-linejoin="round"/>
<path d="M146.5 196.573C187.51 196.573 221.06 163.023 221.06 122.013C180.05 122.013 146.5 155.563 146.5 196.573Z" stroke="#252525" stroke-width="10" stroke-linecap="round" stroke-linejoin="round"/>
<path d="M146.5 161.774C175.08 133.194 175.08 85.9736 146.5 56.1436C117.92 85.9636 117.92 133.194 146.5 161.774Z" stroke="#252525" stroke-width="10" stroke-linecap="round" stroke-linejoin="round"/>
<path d="M146.5 258.703C105.49 258.703 71.9399 225.154 71.9399 184.144C112.95 184.144 146.5 217.693 146.5 258.703Z" stroke="#252525" stroke-width="10" stroke-linecap="round" stroke-linejoin="round"/>
<path d="M146.5 258.703C187.51 258.703 221.06 225.154 221.06 184.144C180.05 184.144 146.5 217.693 146.5 258.703Z" stroke="#252525" stroke-width="10" stroke-linecap="round" stroke-linejoin="round"/>
<path d="M146.5 305.173V261.743" stroke="#252525" stroke-width="10" stroke-linecap="round" stroke-linejoin="round"/>
<path d="M146.5 59.2935V56.1436" stroke="#252525" stroke-width="10" stroke-linecap="round" stroke-linejoin="round"/>
<path d="M212.63 122.013H215" stroke="#252525" stroke-width="10" stroke-linecap="round" stroke-linejoin="round"/>
<path d="M275.45 9.59351L9.44971 307.594" stroke="white" stroke-width="6" stroke-miterlimit="10" stroke-linecap="round"/>
<path d="M289 4.59351L4 322.594" stroke="#252525" stroke-width="8" stroke-miterlimit="10" stroke-linecap="round"/>
</svg>
