<svg width="198" height="199" viewBox="0 0 198 199" fill="none" xmlns="http://www.w3.org/2000/svg">
<path d="M197.714 99.573C197.714 149.465 160.742 190.712 112.712 197.405C108.221 198.028 103.627 198.353 98.9629 198.353C93.5793 198.353 88.2927 197.924 83.1444 197.094C36.118 189.521 0.20459 148.738 0.20459 99.573C0.20459 45.0157 44.4216 0.785645 98.956 0.785645C153.49 0.785645 197.714 45.0157 197.714 99.573Z" fill="#1877F2"/>
<path d="M112.712 80.1022V101.622H139.326L135.111 130.61H112.712V197.398C108.221 198.021 103.627 198.347 98.9629 198.347C93.5793 198.347 88.2926 197.918 83.1444 197.087V130.61H58.6001V101.622H83.1444V75.2916C83.1444 58.9563 96.3818 45.708 112.719 45.708V45.7218C112.768 45.7218 112.809 45.708 112.858 45.708H139.333V70.7786H122.033C116.892 70.7786 112.719 74.9525 112.719 80.0953L112.712 80.1022Z" fill="white"/>
</svg>
