<svg width="302" height="314" viewBox="0 0 302 314" fill="none" xmlns="http://www.w3.org/2000/svg">
<rect x="36" y="41.4912" width="257" height="259" rx="128.5" fill="#DC7B33"/>
<path d="M152.044 222.161H171.753C176.947 222.118 181.128 217.562 181.088 211.985V163.015C181.044 149.663 177.534 136.587 170.945 125.261C170.945 125.233 170.945 125.204 170.945 125.175C168.719 121.244 167.297 116.846 166.768 112.281H167.435C168.723 112.281 169.767 111.159 169.767 109.776V94.3527C169.767 92.9692 168.723 91.8481 167.435 91.8481H133.592C132.304 91.8481 131.26 92.9692 131.26 94.3527V109.704C131.26 111.088 132.304 112.209 133.592 112.209H135.356C134.841 116.851 133.406 121.316 131.153 125.319L131.038 125.433C124.44 136.787 120.93 149.892 120.908 163.278V212C120.868 217.577 125.049 222.132 130.242 222.175H152.213" stroke="#252525" stroke-width="10" stroke-linecap="round" stroke-linejoin="round"/>
<path d="M121.108 170.897C123.578 172.118 125.853 173.592 127.87 175.29C131.793 178.282 135.872 181.378 140.555 181.378C145.238 181.378 149.299 178.282 153.24 175.29C156.394 172.881 159.66 170.391 162.205 170.391C164.751 170.391 168.004 172.881 171.158 175.29C174.313 177.7 177.534 180.133 181.088 181.001" stroke="#252525" stroke-width="10" stroke-linecap="round" stroke-linejoin="round"/>
<path d="M214.313 81.1479L151 157L87.6875 232.852" stroke="#252525" stroke-width="8" stroke-miterlimit="10" stroke-linecap="round"/>
<path d="M111.131 22.602C88.1051 28.5712 62.1325 46.6777 45.7385 67.7689C35.9757 80.7021 24.1867 105.773 20.3184 122.884C15.7134 142.583 17.3712 180.984 23.8183 200.086C32.8442 227.743 56.492 256.091 79.9033 270.164C106.2 285.971 126.551 281.637 126.551 285.971C178.361 290.913 82.6473 264.236 73.0434 253.578C63.1756 242.627 35.7915 211.158 29.7128 185.888C26.2129 170.965 26.2129 141.588 29.7128 125.272C39.2913 81.1 73.3689 44.0911 114.815 32.5507C128.998 28.5713 155.523 28.5713 169.707 32.3517C190.338 38.122 210.609 46.4928 226.082 61.8137C239.897 75.1449 246.296 69.5168 230.823 53.002C214.06 35.0945 194.574 28.1732 173.391 22.403C159.76 18.6226 125.683 18.8215 111.131 22.602Z" fill="#404040"/>
<path d="M111.131 22.602C88.1051 28.5712 62.1325 46.6777 45.7385 67.7689C35.9757 80.7021 24.1867 105.773 20.3184 122.884C15.7134 142.583 17.3712 180.984 23.8183 200.086C32.8442 227.743 56.492 256.091 79.9033 270.164C106.2 285.971 126.551 281.637 126.551 285.971C178.361 290.913 82.6473 264.236 73.0434 253.578C63.1756 242.627 35.7915 211.158 29.7128 185.888C26.2129 170.965 26.2129 141.588 29.7128 125.272C39.2913 81.1 73.3689 44.0911 114.815 32.5507C128.998 28.5713 155.523 28.5713 169.707 32.3517C190.338 38.122 210.609 46.4928 226.082 61.8137C239.897 75.1449 246.296 69.5168 230.823 53.002C214.06 35.0945 194.574 28.1732 173.391 22.403C159.76 18.6226 125.683 18.8215 111.131 22.602Z" fill="url(#paint0_linear_134_12)" fill-opacity="0.2"/>
<path d="M188.124 284.025C210.963 277.269 236.394 258.281 252.164 236.639C261.544 223.377 272.596 197.915 275.962 180.679C279.99 160.833 273.512 122.879 266.51 104.008C256.681 76.6742 231.845 51.4628 209.191 36.0162C202.798 31.6568 166.661 22.1873 165.925 22.2126C113.996 19.0487 206.814 39.3717 214.221 46.8815C229.435 62.307 254.995 94.6438 261.808 119.692C265.742 134.488 269.525 162.187 266.503 178.615C258.219 223.093 225.239 261.252 184.151 274.208C170.091 278.672 143.579 279.581 129.292 276.289C108.503 271.229 83.3113 263.063 67.3988 248.28C53.2014 235.43 56.3456 239.888 72.2929 255.864C89.5697 273.188 104.559 281.318 125.9 286.359C139.635 289.67 173.689 288.303 188.124 284.025Z" fill="#404040"/>
<path d="M188.124 284.025C210.963 277.269 236.394 258.281 252.164 236.639C261.544 223.377 272.596 197.915 275.962 180.679C279.99 160.833 273.512 122.879 266.51 104.008C256.681 76.6742 231.845 51.4628 209.191 36.0162C202.798 31.6568 166.661 22.1873 165.925 22.2126C113.996 19.0487 206.814 39.3717 214.221 46.8815C229.435 62.307 254.995 94.6438 261.808 119.692C265.742 134.488 269.525 162.187 266.503 178.615C258.219 223.093 225.239 261.252 184.151 274.208C170.091 278.672 143.579 279.581 129.292 276.289C108.503 271.229 83.3113 263.063 67.3988 248.28C53.2014 235.43 56.3456 239.888 72.2929 255.864C89.5697 273.188 104.559 281.318 125.9 286.359C139.635 289.67 173.689 288.303 188.124 284.025Z" fill="url(#paint1_linear_134_12)" fill-opacity="0.2"/>
<defs>
<linearGradient id="paint0_linear_134_12" x1="275.376" y1="475.149" x2="87.2765" y2="37.4947" gradientUnits="userSpaceOnUse">
<stop offset="0.987289" stop-color="white"/>
<stop offset="1"/>
</linearGradient>
<linearGradient id="paint1_linear_134_12" x1="11.2059" y1="-161.222" x2="213.029" y2="267.439" gradientUnits="userSpaceOnUse">
<stop offset="0.987289" stop-color="white"/>
<stop offset="1"/>
</linearGradient>
</defs>
</svg>
