<svg width="302" height="314" viewBox="0 0 302 314" fill="none" xmlns="http://www.w3.org/2000/svg">
<rect x="36" y="41.4912" width="252" height="259" rx="126" fill="#DC7B33"/>
<path d="M154.289 237.731H175.088C180.569 237.687 184.981 233.011 184.939 227.287V177.026C184.892 163.321 181.188 149.9 174.235 138.277C174.235 138.247 174.235 138.218 174.235 138.188C171.886 134.154 170.385 129.639 169.827 124.954H170.531C171.89 124.954 172.992 123.803 172.992 122.383V106.553C172.992 105.133 171.89 103.982 170.531 103.982H134.818C133.458 103.982 132.356 105.133 132.356 106.553V122.309C132.356 123.729 133.458 124.88 134.818 124.88H136.679C136.135 129.644 134.621 134.227 132.244 138.335L132.122 138.453C125.159 150.106 121.455 163.556 121.432 177.296V227.302C121.389 233.026 125.801 237.702 131.282 237.746H154.468" stroke="#252525" stroke-width="10" stroke-linecap="round" stroke-linejoin="round"/>
<path d="M121.643 185.115C124.25 186.369 126.65 187.882 128.779 189.625C132.919 192.695 137.223 195.872 142.165 195.872C147.107 195.872 151.392 192.695 155.551 189.625C158.88 187.152 162.326 184.596 165.012 184.596C167.699 184.596 171.131 187.152 174.46 189.625C177.789 192.097 181.188 194.595 184.939 195.486" stroke="#252525" stroke-width="10" stroke-linecap="round" stroke-linejoin="round"/>
<path d="M213.647 95.4482L88.9302 241.36" stroke="white" stroke-width="6" stroke-miterlimit="10" stroke-linecap="round"/>
<path d="M220 93L86.375 248.704" stroke="#252525" stroke-width="8" stroke-miterlimit="10" stroke-linecap="round"/>
<path d="M103.983 20.8322C80.0817 26.9214 53.1215 45.3921 36.1041 66.9073C25.9701 80.1006 13.7329 105.675 9.71754 123.131C4.93737 143.226 6.65823 182.4 13.3505 201.885C22.7196 230.098 47.2665 259.017 71.568 273.373C98.8645 289.497 119.99 285.076 119.99 289.497C173.77 294.539 74.4163 267.325 64.4472 256.453C54.2042 245.281 25.7789 213.18 19.4691 187.402C15.8362 172.179 15.8362 142.211 19.4691 125.567C29.4119 80.5066 64.7851 42.7535 107.807 30.981C122.53 26.9215 150.063 26.9215 164.786 30.778C186.201 36.6642 207.243 45.2034 223.305 60.8324C237.645 74.4317 244.287 68.6904 228.226 51.8435C210.826 33.5759 190.599 26.5155 168.61 20.6292C154.461 16.7727 119.088 16.9757 103.983 20.8322Z" fill="#404040"/>
<path d="M183.903 287.513C207.611 280.621 234.009 261.251 250.379 239.173C260.116 225.645 271.587 199.671 275.082 182.089C279.263 161.843 272.538 123.126 265.27 103.876C255.068 75.9921 229.286 50.2737 205.771 34.5165C199.135 30.0694 161.624 20.4095 160.86 20.4353C106.957 17.2078 203.304 37.9394 210.993 45.6002C226.785 61.336 253.317 94.323 260.389 119.875C264.472 134.968 268.399 163.225 265.263 179.983C256.663 225.355 222.43 264.282 179.779 277.498C165.185 282.052 137.665 282.979 122.835 279.621C101.255 274.459 75.1055 266.129 58.5879 251.049C43.8507 237.94 47.1144 242.488 63.6681 258.785C81.6018 276.457 97.1613 284.751 119.314 289.893C133.571 293.271 168.92 291.876 183.903 287.513Z" fill="#404040"/>
</svg>
