<svg width="198" height="199" viewBox="0 0 198 199" fill="none" xmlns="http://www.w3.org/2000/svg">
<path d="M99.2815 0.789062H98.8317C44.4151 0.789062 0.301758 44.9154 0.301758 99.348V99.7979C0.301758 154.231 44.4151 198.357 98.8317 198.357H99.2815C153.698 198.357 197.811 154.231 197.811 99.7979V99.348C197.811 44.9154 153.698 0.789062 99.2815 0.789062Z" fill="url(#paint0_linear_185_12)"/>
<path d="M129.618 40.9839H68.5026C51.6185 40.9839 37.8828 54.7236 37.8828 71.6127V127.541C37.8828 144.43 51.6185 158.169 68.5026 158.169H129.618C146.502 158.169 160.237 144.43 160.237 127.541V71.6127C160.237 54.7236 146.502 40.9839 129.618 40.9839ZM48.6845 71.6127C48.6845 60.6832 57.5763 51.7888 68.5026 51.7888H129.618C140.544 51.7888 149.436 60.6832 149.436 71.6127V127.541C149.436 138.47 140.544 147.364 129.618 147.364H68.5026C57.5763 147.364 48.6845 138.47 48.6845 127.541V71.6127Z" fill="white"/>
<path d="M99.0602 128.06C114.761 128.06 127.542 115.282 127.542 99.5696C127.542 83.8572 114.768 71.0796 99.0602 71.0796C83.3524 71.0796 70.5786 83.8572 70.5786 99.5696C70.5786 115.282 83.3524 128.06 99.0602 128.06ZM99.0602 81.8914C108.81 81.8914 116.74 89.8237 116.74 99.5765C116.74 109.329 108.81 117.262 99.0602 117.262C89.3103 117.262 81.3803 109.329 81.3803 99.5765C81.3803 89.8237 89.3103 81.8914 99.0602 81.8914Z" fill="white"/>
<path d="M130.178 75.6825C134.406 75.6825 137.852 72.2424 137.852 68.0063C137.852 63.7702 134.413 60.3301 130.178 60.3301C125.943 60.3301 122.504 63.7702 122.504 68.0063C122.504 72.2424 125.943 75.6825 130.178 75.6825Z" fill="white"/>
<defs>
<linearGradient id="paint0_linear_185_12" x1="29.157" y1="169.493" x2="168.997" y2="29.7009" gradientUnits="userSpaceOnUse">
<stop stop-color="#FAAD4F"/>
<stop offset="0.35" stop-color="#DD2A7B"/>
<stop offset="0.62" stop-color="#9537B0"/>
<stop offset="1" stop-color="#515BD4"/>
</linearGradient>
</defs>
</svg>
