<svg width="199" height="199" viewBox="0 0 199 199" fill="none" xmlns="http://www.w3.org/2000/svg">
<path d="M99.8074 0.785645H99.3576C44.941 0.785645 0.827637 44.912 0.827637 99.3446V99.7945C0.827637 154.227 44.941 198.353 99.3576 198.353H99.8074C154.224 198.353 198.337 154.227 198.337 99.7945V99.3446C198.337 44.912 154.224 0.785645 99.8074 0.785645Z" fill="#00E510"/>
<path d="M118.83 128.464C93.5518 128.464 72.9864 107.886 72.9795 82.6006C72.9864 76.1911 78.2039 70.979 84.5977 70.979C85.2551 70.979 85.9055 71.0344 86.5283 71.1451C87.8984 71.3735 89.1994 71.8373 90.3965 72.5364C90.5695 72.6402 90.6871 72.8063 90.7147 73.0002L93.3857 89.8408C93.4203 90.0415 93.3581 90.2353 93.2266 90.3807C91.7527 92.0142 89.8705 93.1909 87.7739 93.7793L86.7636 94.0631L87.1441 95.039C90.5902 103.816 97.6068 110.828 106.388 114.288L107.364 114.676L107.647 113.666C108.235 111.568 109.412 109.685 111.045 108.211C111.163 108.1 111.322 108.045 111.481 108.045C111.515 108.045 111.55 108.045 111.592 108.052L128.427 110.724C128.628 110.758 128.794 110.869 128.898 111.042C129.59 112.24 130.053 113.548 130.289 114.918C130.399 115.527 130.448 116.171 130.448 116.843C130.448 123.245 125.237 128.457 118.83 128.464Z" fill="#FDFDFD"/>
<path d="M163.656 94.0217C162.292 78.6139 155.234 64.3205 143.782 53.7786C132.261 43.1745 117.314 37.3325 101.682 37.3325C67.3745 37.3325 39.4604 65.2549 39.4604 99.573C39.4604 111.091 42.6364 122.311 48.6497 132.085L35.2393 161.779L78.1762 157.204C85.6426 160.263 93.5449 161.813 101.676 161.813C103.814 161.813 106.007 161.703 108.208 161.474C110.145 161.267 112.104 160.962 114.027 160.574C142.758 154.767 163.732 129.26 163.898 99.9052V99.573C163.898 97.7041 163.815 95.8352 163.649 94.0217H163.656ZM79.83 144.17L56.0746 146.703L63.1673 130.984L61.7488 129.08C61.645 128.942 61.5412 128.804 61.4236 128.644C55.265 120.138 52.0127 110.087 52.0127 99.5799C52.0127 72.1836 74.2942 49.8955 101.682 49.8955C127.341 49.8955 149.09 69.9202 151.186 95.4822C151.297 96.8527 151.359 98.2302 151.359 99.5868C151.359 99.9745 151.352 100.355 151.345 100.764C150.819 123.681 134.814 143.145 112.422 148.101C110.713 148.482 108.962 148.773 107.218 148.96C105.405 149.167 103.544 149.271 101.696 149.271C95.1157 149.271 88.7218 147.998 82.6809 145.478C82.0097 145.208 81.3523 144.917 80.7364 144.62L79.8369 144.184L79.83 144.17Z" fill="#FDFDFD"/>
</svg>
