<svg width="294" height="327" viewBox="0 0 294 327" fill="none" xmlns="http://www.w3.org/2000/svg">
<path d="M149.35 299.754H193.71C205.4 299.664 214.81 290.114 214.72 278.424V175.773C214.62 147.783 206.72 120.374 191.89 96.6335C191.89 96.5735 191.89 96.5136 191.89 96.4536C186.88 88.2136 183.68 78.9936 182.49 69.4236H183.99C186.89 69.4236 189.24 67.0736 189.24 64.1736V31.8435C189.24 28.9435 186.89 26.5935 183.99 26.5935H107.82C104.92 26.5935 102.57 28.9435 102.57 31.8435V64.0234C102.57 66.9234 104.92 69.2734 107.82 69.2734H111.79C110.63 79.0034 107.4 88.3637 102.33 96.7537L102.07 96.9937C87.2202 120.794 79.3202 148.263 79.2702 176.323V278.454C79.1802 290.144 88.5902 299.693 100.28 299.783H149.73" stroke="#252525" stroke-width="10" stroke-linecap="round" stroke-linejoin="round"/>
<path d="M79.7202 192.293C85.2802 194.853 90.4002 197.944 94.9402 201.504C103.77 207.774 112.95 214.263 123.49 214.263C134.03 214.263 143.17 207.774 152.04 201.504C159.14 196.454 166.49 191.234 172.22 191.234C177.95 191.234 185.27 196.454 192.37 201.504C199.47 206.554 206.72 211.654 214.72 213.474" stroke="#252525" stroke-width="10" stroke-linecap="round" stroke-linejoin="round"/>
<path d="M275.95 9.16357L9.9502 307.164" stroke="white" stroke-width="6" stroke-miterlimit="10" stroke-linecap="round"/>
<path d="M289.5 4.16357L4.5 322.164" stroke="#252525" stroke-width="8" stroke-miterlimit="10" stroke-linecap="round"/>
</svg>
