<svg width="290" height="290" viewBox="0 0 290 290" fill="none" xmlns="http://www.w3.org/2000/svg">
<path d="M187 22.125C237 66.625 263.093 110.125 259.5 152.125C251.847 189.181 229.91 223.84 195.875 240.555C163.854 256.263 139.718 260.234 105 251.055C90.9028 246.02 81.8581 239.064 60.1082 224.161C55.1249 214.055 42.6805 230.354 49.1249 237C80.1388 269.222 157.938 285.819 206.875 262.055C229.431 251.18 256.125 211.305 264.115 189.925C284.254 151.057 279.035 112.097 259.5 72.625C253.257 59.9375 220.121 22.125 213.5 22.125H187Z" fill="#404040"/>
<path d="M107.766 6.21918C82.592 12.2608 54.1962 30.5873 36.2726 51.9345C25.599 65.0248 12.7101 90.3998 8.48091 107.719C3.44619 127.657 5.25869 166.525 12.3073 185.858C22.1754 213.851 52.4881 243.962 76.75 260.375C83.5972 265.007 117.75 273.375 118.556 273.375C175.199 278.378 75.3698 254.729 67.5156 246.875C51.3827 230.742 28.6476 195.483 22.0017 169.907C18.1754 154.803 14.9254 126.65 18.7517 110.136C29.224 65.4276 66.4809 27.9693 111.793 16.2887C127.3 12.2609 156.3 12.2609 171.807 16.0873C194.363 21.9276 216.525 30.4001 233.442 45.907C248.546 59.4001 250.358 55.4431 233.442 38.7278C215.115 20.6028 198.995 11.8581 175.835 6.01779C160.932 2.1914 123.675 2.39279 107.766 6.21918Z" fill="#404040"/>
<path d="M137.241 16.6589C92.779 24.7889 59.9667 49.3773 40.9395 87.8461C23.6597 123.539 13.9649 157.419 27.75 194.5C36.9085 210.746 37.75 212 48.2456 225.5C74.9017 259.786 133.94 266.311 174.13 256C208.636 241.675 202.636 243.39 224 225.5C249.434 199.722 261.5 168.552 261.5 133.255C261.5 83.4839 230.435 33.7121 191.604 21.2196C179.372 17.4521 147.725 14.676 137.241 16.6589ZM126.95 98.9506C134.328 101.727 140.735 108.072 145.395 117.392C148.502 123.539 149.084 128.1 148.502 139.601C147.919 152.094 147.143 155.068 141.9 161.612C132.775 173.311 125.591 176.087 104.817 176.087H86.7602V136.428V96.7693H104.04C113.554 96.7693 123.844 97.7608 126.95 98.9506ZM207.136 103.71V110.65H190.633H174.13V119.573V128.496H189.662H205.195V135.437V142.377H189.662H174.13V159.232V176.087H167.335H160.539V136.428V96.7693H183.838H207.136V103.71Z" fill="#DC7B33"/>
<path d="M51.3352 131.491V193.375H102.734C143.643 193.375 161.475 190.519 186.65 180.998C253.784 155.769 253.784 107.214 186.65 81.9842C161.475 72.4636 143.643 69.6074 102.734 69.6074H51.3352V131.491Z" fill="#DC7B33"/>
<path d="M260.479 79.4306C278.403 118.701 275.785 167.84 254.035 206.306C246.18 220.604 218.59 248.194 204.292 256.049C198.25 259.674 185.965 264.91 177.104 267.931C163.007 272.764 157.778 272.312 135.625 272.312C113.875 272.312 104.18 268.333 90.4861 263.701C72.5624 257.861 72.5624 259.271 90.2847 267.931C124.319 284.646 177.708 289.076 211.139 272.562C247.187 254.437 275.18 217.583 282.833 178.514C286.458 160.993 284.444 124.139 279.208 109.639C273.972 94.9375 266.118 79.8333 259.875 72.3819C254.639 66.3403 254.639 66.3403 260.479 79.4306Z" fill="#DC7B33"/>
<path d="M142.91 218.557H166.88C173.197 218.508 178.281 213.365 178.233 207.07V151.791C178.179 136.718 173.91 121.957 165.897 109.172C165.897 109.14 165.897 109.108 165.897 109.075C163.189 104.638 161.46 99.6727 160.817 94.519H161.628C163.195 94.519 164.465 93.2535 164.465 91.6918V74.2813C164.465 72.7196 163.195 71.4541 161.628 71.4541H120.469C118.902 71.4541 117.633 72.7196 117.633 74.2813V91.6109C117.633 93.1727 118.902 94.4382 120.469 94.4382H122.615C121.988 99.678 120.242 104.719 117.503 109.237L117.362 109.366C109.338 122.183 105.069 136.976 105.042 152.087V207.086C104.994 213.382 110.078 218.524 116.395 218.573H143.115" stroke="#252525" stroke-width="10" stroke-linecap="round" stroke-linejoin="round"/>
<path d="M105.286 160.687C108.29 162.066 111.057 163.73 113.51 165.647C118.281 169.023 123.242 172.518 128.937 172.518C134.632 172.518 139.571 169.023 144.364 165.647C148.2 162.927 152.172 160.116 155.268 160.116C158.364 160.116 162.32 162.927 166.156 165.647C169.993 168.366 173.91 171.113 178.233 172.093" stroke="#252525" stroke-width="10" stroke-linecap="round" stroke-linejoin="round"/>
<path d="M211.319 62.0674L67.5852 222.547" stroke="white" stroke-width="6" stroke-miterlimit="10" stroke-linecap="round"/>
<path d="M218.64 59.375L64.6404 230.625" stroke="#252525" stroke-width="8" stroke-miterlimit="10" stroke-linecap="round"/>
</svg>
