<svg width="256" height="259" viewBox="0 0 256 259" fill="none" xmlns="http://www.w3.org/2000/svg">
<g clip-path="url(#clip0_130_1792)">
<rect width="256" height="259" rx="50" fill="#DC7B33"/>
<path d="M129.156 202.504H150.971C156.72 202.456 161.348 197.352 161.303 191.104V136.239C161.254 121.279 157.369 106.629 150.076 93.9408C150.076 93.9087 150.076 93.8767 150.076 93.8446C147.612 89.4405 146.039 84.5126 145.453 79.3977H146.191C147.617 79.3977 148.773 78.1416 148.773 76.5916V59.3119C148.773 57.7619 147.617 56.5059 146.191 56.5059H108.732C107.306 56.5059 106.151 57.7619 106.151 59.3119V76.5114C106.151 78.0614 107.306 79.3174 108.732 79.3174H110.685C110.114 84.5179 108.526 89.5207 106.033 94.005L105.905 94.1333C98.6018 106.854 94.7168 121.536 94.6922 136.533V191.12C94.6479 197.368 99.2756 202.472 105.024 202.52H129.343" stroke="#252525" stroke-width="10" stroke-linecap="round" stroke-linejoin="round"/>
<path d="M94.9136 145.069C97.6479 146.438 100.166 148.089 102.398 149.992C106.741 153.343 111.255 156.812 116.439 156.812C121.622 156.812 126.117 153.343 130.479 149.992C133.97 147.293 137.585 144.503 140.403 144.503C143.221 144.503 146.821 147.293 150.312 149.992C153.804 152.691 157.369 155.417 161.303 156.39" stroke="#252525" stroke-width="10" stroke-linecap="round" stroke-linejoin="round"/>
<path d="M198.078 44.5176L57.9219 214.482" stroke="#252525" stroke-width="8" stroke-miterlimit="10" stroke-linecap="round"/>
</g>
<defs>
<clipPath id="clip0_130_1792">
<rect width="256" height="259" fill="white"/>
</clipPath>
</defs>
</svg>
