<svg width="60" height="60" viewBox="0 0 60 60" fill="none" xmlns="http://www.w3.org/2000/svg">
<path d="M24.4996 1.50002C37.2021 1.50008 47.4996 11.7975 47.4996 24.5C47.4996 29.4067 45.9615 33.9534 43.3434 37.6875L57.3278 51.6719L57.4703 51.8213C58.8885 53.3915 58.8408 55.815 57.3278 57.3281C55.8147 58.8412 53.3911 58.8889 51.8209 57.4707L51.6715 57.3281L37.6871 43.3438C33.9531 45.9619 29.4063 47.5 24.4996 47.5C11.7971 47.5 1.49964 37.2026 1.49963 24.5C1.49963 11.7975 11.7971 1.50002 24.4996 1.50002ZM24.4996 7.50002C15.1108 7.50002 7.49963 15.1112 7.49963 24.5C7.49964 33.8889 15.1108 41.5 24.4996 41.5C33.8884 41.4999 41.4996 33.8888 41.4996 24.5C41.4996 15.1112 33.8884 7.50008 24.4996 7.50002Z" fill="black"/>
</svg>
