<?xml version="1.0" encoding="UTF-8"?> <svg xmlns="http://www.w3.org/2000/svg" xmlns:xlink="http://www.w3.org/1999/xlink" width="208.497" height="141.849" viewBox="0 0 208.497 141.849"><defs><style>.a,.d,.e{fill:none;}.b{clip-path:url(#a);}.c{fill:#476e98;}.d,.e{stroke:#2c5989;stroke-miterlimit:10;}.d{stroke-width:0.999px;}.e{stroke-width:0.871px;}.f{fill:#2c5989;}.g{fill:#fff;}</style><clipPath id="a"><rect class="a" width="190.958" height="104.429" transform="translate(0 0)"></rect></clipPath></defs><g transform="matrix(-0.978, -0.208, 0.208, -0.978, 186.785, 141.849)"><g class="b" transform="translate(0 0)"><path class="c" d="M0,0a.072.072,0,0,1,.01.042C0,.021,0,.009,0,0" transform="translate(176.854 43.98)"></path><path class="c" d="M0,0,.1.023C.036.017.01.01,0,0" transform="translate(167.832 42.545)"></path><path class="c" d="M.008.014C0,.008,0,.006,0,0L.353.16Z" transform="translate(182.008 45.881)"></path><path class="c" d="M0,.045.114,0A.878.878,0,0,1,0,.045" transform="translate(148.857 45.946)"></path><path class="c" d="M.156.016A.533.533,0,0,0,0,.011C.073,0,.132-.007.156.016" transform="translate(159.767 42.872)"></path><path class="c" d="M.164.046,0,.009C.015-.009.075,0,.164.046" transform="translate(184.83 46.517)"></path><path class="c" d="M.02.006A.063.063,0,0,1,0,.006C0,0,.007,0,.02.006" transform="translate(189.513 50.006)"></path><path class="c" d="M.116.11,0,0C.054.04.124.088.116.11" transform="translate(187.538 48.71)"></path><path class="c" d="M0,0,.055.054C.021.028-.006.007,0,0" transform="translate(187.483 48.657)"></path><path class="c" d="M.4.223A1.713,1.713,0,0,1,0,0Z" transform="translate(86.57 75.777)"></path><path class="c" d="M0,.006.041,0C.012.016,0,.014,0,.006" transform="translate(133.897 55.15)"></path><path class="c" d="M.113.029,0,0A.577.577,0,0,1,.113.029" transform="translate(86.827 75.46)"></path><path class="c" d="M.439.252C.312.134-.022.046,0,0,.156.083.4.153.439.252" transform="translate(181.941 44.767)"></path><path class="c" d="M.082,0,0,.073.082,0" transform="translate(129.66 56.193)"></path><path class="c" d="M0,0,.13.033A.327.327,0,0,1,.083.045.4.4,0,0,0,0,0" transform="translate(86.939 75.489)"></path><path class="c" d="M0,.022l0,0L.04,0Z" transform="translate(120.319 67.94)"></path><path class="c" d="M0,.125.176,0A.559.559,0,0,1,0,.125" transform="translate(119.614 68.559)"></path><path class="c" d="M.228.13,0,0A1.594,1.594,0,0,1,.228.13" transform="translate(86.342 75.646)"></path><path class="c" d="M0,.04.092,0A.493.493,0,0,1,0,.04" transform="translate(110.544 74.685)"></path><path class="c" d="M0,.019.083,0C.094.012.089.02,0,.019" transform="translate(160.654 42.745)"></path><path class="c" d="M0,0H0Z" transform="translate(153.156 42.812)"></path><path class="c" d="M.4,0A.99.99,0,0,1,0,.045,1.118,1.118,0,0,1,.4,0" transform="translate(153.159 42.767)"></path><path class="c" d="M0,.02.043,0A.285.285,0,0,1,0,.02" transform="translate(152.342 43.056)"></path><path class="c" d="M0,0V.006L0,0Z" transform="translate(160.183 41.316)"></path><path class="c" d="M.1,0A.533.533,0,0,1,0,.039.42.42,0,0,1,.1,0" transform="translate(158.5 41.529)"></path><path class="c" d="M.006,0h0L0,0Z" transform="translate(148.541 44.234)"></path><path class="c" d="M49.082,10.225c1.231-.888,2.9-1.926,4.16-2.739a7.1,7.1,0,0,0,1.163-.55l-.031-.15.368-.162c.117-.12-.279.132-.058-.061l.175,0c0-.061.867-.55.237-.3.443-.269.908-.5,1.36-.752.3-.168.233.011.549-.2.049-.074-.133.04-.13-.021.965-.621,1.3-.344,2.222-.871l-.09.019c.181-.039.491-.184.5-.168-.062.189-.207.007-.465.218.079.1.4-.106.416-.013a2.328,2.328,0,0,1,.568-.22c.3-.217.8-.4,1.024-.582a2.631,2.631,0,0,0,.775-.137c.22-.194-.1-.061.241-.237l.083.044c.282-.126.23-.127.208-.154.306-.127.288-.016.663-.2L62.78,3a6.917,6.917,0,0,0,.813-.284c-.022-.036-.183.025-.3.08.183-.179.39-.092.5-.147-.023.042-.3.156-.137.173.2-.084.456-.062.571-.193l-.241.014a2.358,2.358,0,0,0,.722-.188c-.028,0-.021-.017-.037-.028a5,5,0,0,0,1.16-.367l-.092.009c.19-.035.309-.006.406-.042-.246.121-.169.118-.172.192.3-.223.557-.037,1.1-.253-.02-.036-.169-.048-.312.037a1.026,1.026,0,0,0-.636-.106c.218-.044.476-.094.408-.128l.1.089.328-.094c.074.053-.229.183.083.147.347-.057.148-.16.214-.125.477-.084.224.064.66-.094a.522.522,0,0,0-.174.029c.307-.135.791-.193.855-.341a.2.2,0,0,0-.2-.017l.011.019c-.381-.014.3-.043.163-.136-.007.077.446-.045.648-.1l-.047.1c.739.084-.073-.151.612-.276.442-.045-.158.059.118.056A3.107,3.107,0,0,1,70.731.8c.113-.054.348-.143.352-.239a5.315,5.315,0,0,1,.951-.126c-.433.16-.462-.013-.963.2L71.234.7c.361-.067.828-.12,1.075-.182-.048.025-.067.051-.032.066A7.73,7.73,0,0,0,73.459.517c.054-.091-.238-.036-.452-.014a5.13,5.13,0,0,1,.838-.15c.017-.076-.339.051-.406-.011L74,.288l0-.015c.1.109.426-.052.774-.05a3.643,3.643,0,0,1,1.4.134c.118-.039.152-.071.1-.1-.2.063-.164.019-.236-.009.275,0,.594-.148.438-.189.44.014-.154.072.116.1l.6-.037c-.068.066-.278.089.034.122.261,0,.385-.015.726-.035-.05-.028.106-.1-.15-.083a.949.949,0,0,1,.522.026c-.372.057.613.053.335.149L79.03.243c-.084,0-.094-.04-.219-.027.106-.094.3.026.435.035a2.6,2.6,0,0,0,.5-.063,1,1,0,0,0,.461-.029c.175.027.012.062.062.1l.6.02c.034-.05.091-.192,0-.216.224.059.074.157.415.169-.19-.11.456-.056.18-.19a2.932,2.932,0,0,1,1.065.036c.183.1-.336.014-.322.1.859.112.888.342,1.52.362L83.558.54a1.677,1.677,0,0,1,.562.174C84.024.6,84.6.506,85.239.621c.046.058-.375.045-.282.14l.423.077c.032,0-.013-.027-.065-.049.376.084.73-.017.818.123L86.546.84l-.164.033a3.187,3.187,0,0,0,.549.192,1.876,1.876,0,0,0,.838.114c-.083.023-.289.073.044.168.032-.162.72.113.73.027.136.035.39.045.389.115l0-.1c0,.151.5.25.865.39-.033-.213.408.137.623.016.034.149.653.249.685.376.287.092.3-.034.382-.051l.117.093a9.167,9.167,0,0,1,1.035.244l.256.214.128-.011c.037.045.277.148.11.134l.161.05c-.032.123.208.122.5.3.08.011.072-.025.01-.07.157.063.115-.025.216-.029-.122-.015.476.443.033.323-.048.036.182.172.344.214l.138-.068.136.186a5.53,5.53,0,0,0,.558.168c-.19-.1-.345-.406.159-.166-.257-.142-.366-.253-.5-.332.109.04.167.051.019-.062.389.2.109.116.494.312.02-.1.144-.082.5.048l-.287-.052a.125.125,0,0,0,.038.049c-.1-.036-.136-.034-.173-.008.078.036.4.329.49.3-.459-.04.63.435.338.4.031.049.3.182.35.149-.291-.222.3.01.275-.074.107.086-.286-.06-.143.055a1.562,1.562,0,0,0,.474.153l-.07-.06.315.117c.023.071-.324-.076-.067.092.081.019.337.188.348.148-.1-.131.043-.163-.18-.3.188.11.79.448.5.4l.229.119c-.164-.04-.6-.185-.152.072l.007-.02.278.238.16.034c-.017.02.019.071.134.138.045-.008.158.047.171.006.327.207.273.235.3.286.18.118.26.143.206.039a10.141,10.141,0,0,0,.891.489c.3.264-.079-.028.074.161a5.481,5.481,0,0,1,1.625,1.086c-.232.018.129.123.136.31-.081-.125.557.281.138-.1l.262.225c.24.077-.412-.4-.057-.277.3.244.4.534.794.77-.047-.184.249.252.237.087a.939.939,0,0,0-.249-.251l.078.033c.672.527.1.26.392.61.38.351.364.2.421.184a1.607,1.607,0,0,1,.344.334c-.193-.26-.486-.334-.423-.185.255.055.584.5.655.628-.644-.387-.388-.333-1-.681-.045-.092.041-.168-.3-.406.159.215-.054.036-.121,0,.1,0-.2-.21-.285-.3-.124-.03.1.269-.247.032l.034-.168c-.145-.083-.016.13-.268-.113.1.179-.121.063.234.371-.523-.242-.635-.583-.947-.9.03.035.021.054.05.089a1.4,1.4,0,0,0-.283-.277c-.255-.139.145.188.056.183-.119-.1-.251-.183-.378-.274a.02.02,0,0,0-.016,0c-.088-.086-.177-.165-.234-.157a2.567,2.567,0,0,1,.153.277l-.34-.365c.015.072-.381-.156-.116.071l-.581-.428-.107.052c-.132-.114-.124-.134.052-.027-.206-.132-.832-.73-.825-.494A11.477,11.477,0,0,0,98.1,5.7c.416.332-.59-.182-.121.121-.309-.115-.314-.245-.532-.382-.234-.076-.186.065.024.221l-.247-.186,0,.021-.206-.178c-.274-.084-.1.064-.362-.061l-.015-.112-.2-.042c.086-.006-.061-.1-.249-.193l0,.02L95.961,4.8c.2.158-.22-.082-.144.027-.2-.089-.2-.092-.553-.277l.088-.027c-.444-.27-.058.076-.438-.1l.053-.054c-.6-.136-.915-.456-1.355-.557.23.113.139.166.142.145-.343-.173-.926-.389-1.275-.593-.172.05-.215.069-.614-.022-.276-.1-.314-.127-.385-.216-.279-.066-.779-.265-.814-.2-.046-.076-.249-.061-.385-.154l-.041.02.044-.063c-.532.017-.794-.346-1.331-.322l.081.04-.2-.079c-.041.022.039.062.039.1L87.9,2.254l.2-.007a2.282,2.282,0,0,0-.569-.173c.367.2-.325-.069-.408.009l.2.068c-.286-.061-.286-.061-.248-.128-.369-.1-.283.085-.612-.057l.245.045c.081-.027-.083-.119-.249-.15-.041,0-.163.013-.04.046-.288-.083-.736-.135-.861-.184-.165,0-.12.057-.037.089-.622-.153-.287-.027-.913-.181l0,.042-.211-.08-.322.042.118-.037a3.043,3.043,0,0,0-.58-.092l.091.07a10.33,10.33,0,0,1-1.244-.1c-.039.007.047.035.09.049-.512-.142-.4.064-.913-.088.03.022-.028.045-.009.063l-.236-.05.014.083-.187-.13-.151.078-.09-.044c-.261.146-.615.01-.965.111l.062-.1a16.421,16.421,0,0,0-3.064.059l.023.082-.442-.076c-.23.076.145.063.074.109-.469-.019-.2-.119-.747-.1-.273.083.1.048.234.071a10.183,10.183,0,0,0-1.62.111c-.009-.01-.033-.022-.015-.028a8.478,8.478,0,0,0-1.156.143c.015.036.107.029.2.023a1.418,1.418,0,0,1-.431.053l.149.05c-.282.054-.841.067-.891.158.03-.035,0-.1-.239-.049-.114.149-.675.071-1.054.21a1.949,1.949,0,0,0,.259-.01,1.42,1.42,0,0,1-.557.038l.062.04c-.31.028-.616.076-.924.124-.107.152-.859.178-.777.252-.322.079.259-.116-.153-.036-.1.076-.377.06-.34.136h.047l-.285.068.2.029c-.248.05-.447.021-.475-.035-.219.107-.557.161-.643.261l.09,0c-.66.14-1.007.514-1.548.547-.034.022-.023.04.055.015l-.393.13.113.028-.682.118.021.036c-.422.161-1.093.389-1.646.574l.088-.012c-.621.155-.556.261-1.007.388a.118.118,0,0,0,.052,0l-.388.156.1,0c-.321.035-.776.439-.627.3a3,3,0,0,1-.54.085c-.418.184-.081.094-.324.243a6.153,6.153,0,0,0-.774.316l.025.033c-.193.08-.325.1-.588.231l.086-.021c-.465.135-.479.373-.893.379-.163.118-.515.264-.46.329-.551.224-.965.431-1.5.681-.017.164-.117.05-.39.292l-.013-.076c-.721.421-1.465,1.039-2.245,1.52l.017.075-.2.032c-.822.548-1.848,1.311-2.49,1.766a4.805,4.805,0,0,0-.911.55l.041-.017A14.773,14.773,0,0,0,48.8,13.174c.057-.007.011.058.091.018-.2.051-.358.284-.484.394l.116-.168a1.123,1.123,0,0,0-.468.459l-.319.167c-.013.02-.033.051-.029.063l-.073.011-.081.193a2.827,2.827,0,0,1-.614.358c0,.047-.235.282-.033.127q-.476.431-.941.878l.126-.16c-.03-.071-.348.156-.474.316.234-.134.085.061.038.176-.155.088.07-.149-.025-.116a2.629,2.629,0,0,0-.619.515l.116-.069c-.237.184-.252.372-.472.569-.234.139-.34.312-.385.183-.3.246-.049.163-.131.257a1.634,1.634,0,0,0-.539.574c-.28.013-.7.766-.862.712l-.166.282c-.036-.022-.146-.045-.341.122-.143.2-.051.212-.075.293l-.222,0c-.881,1.09-2.268,2.31-3.278,3.478-.513.456-1.188,1-1.756,1.573l.078-.048-.555.578.378-.448a4.232,4.232,0,0,0-.382.294,17.84,17.84,0,0,1-2.285,2.151c-.648.326-.247.429-.848.765.055-.024.087-.019.139-.04a18.046,18.046,0,0,1-1.553,1.026c.174.083-.375.29-.267.322l-.091-.018c-.1.134-.391.383-.317.389l-.312.123.021.074a6.174,6.174,0,0,0-1.217,1c-.922.537-2.318,1.464-3.462,2.158a4.2,4.2,0,0,0-.8.37l-.244.235a3.623,3.623,0,0,0-.864.353c.006.008.019.009.04,0a3.448,3.448,0,0,1-.839.356c-.311.149-.6.334-.468.362-.088-.114-.662.32-.662.32s-1.007.482-2.655,1.069a27.9,27.9,0,0,1-6.5,1.449,23.313,23.313,0,0,1-7.478-.486A19.214,19.214,0,0,1,.781,34.952c-.113-.113-.47-.3-.3-.321C.207,34.5.03,34.567,0,34.479c.407.1-.055-.216.356-.156l-.238-.108c-.032-.066.311.178.283.069l.022.15a.921.921,0,0,0,.408.05c.169.114.227.332.7.409l-.121-.05c.364.129.25,0,.334,0l-.081-.026.328.04c-.248-.034-.6-.268-.4-.191.446.112-.122-.008.2.117.2.076.165-.013.169-.053l.363.121c.006-.063-.243-.074-.076-.087l.44.206c.131-.124.481.225.735.141-.323-.128.044-.042,0-.1l.814.228c.083,0-.2-.1-.082-.063.165,0,.244.1.327.122.082-.025.614.148.614.041.573.05.207.183.742.229.081-.046-.412-.1-.167-.114l.538.128a.4.4,0,0,0-.292-.147c1.482.2,2.308-.042,3.634.129.193-.067-.132-.054-.263-.116a10.19,10.19,0,0,0,2.175-.116l.017.06c1.13-.236,2.5-.251,3.76-.57l-.145.067a2.9,2.9,0,0,0,.682-.038c.025-.038-.177-.1.194-.151-.071.038-.22.094-.169.114a44.271,44.271,0,0,0,4.983-1.737,37.038,37.038,0,0,0,6.673-3.6c-.315.2-.1.239.117.056.487-.648,1.13-.712,1.654-1.328,1.2-.777,2.043-1.765,3.184-2.476l-.027-.072c.128-.156.2-.153.365-.285l-.017-.012c.357-.342.852-.687,1.04-.906l.069.049c.223-.192.071-.149.326-.317l-.034-.024.314-.18c-.122-.082.6-.576.731-.784a13.854,13.854,0,0,0,1.268-1.121A8.217,8.217,0,0,1,37.3,21.1c.649-.6,1.572-1.478,2.362-2.293l.051.081.216-.2c-.017-.012,0-.048-.035-.023.089-.236.512-.456.636-.67-.049.165-.14.154-.258.275-.143.2.085.1.288-.159l-.019-.011.194-.121c-.033-.07.089-.237.058-.307C41.5,17,42.066,16.624,42.776,15.9c-.133.012.545-.485.3-.448.482-.378,0,.151.276.034.122-.118.28-.212.266-.271-.082.03.043-.157-.067-.072l.3-.27c.021-.035-.057.012-.1.036.666-.5,1.022-1.066,1.64-1.5.075,0-.214.207-.139.209.634-.417.438-.508,1.015-.913l-.155.041a1.446,1.446,0,0,0,.568-.411c0-.106-.286.151-.449.239.194-.168.706-.57.6-.384a1.738,1.738,0,0,0,.4-.43c.017.013-.185.227-.022.142a15.6,15.6,0,0,1,1.2-1.025c-.017-.014-.008-.06-.049-.041.392-.167.236-.3.708-.614" transform="translate(86.191 41.049)"></path><path class="c" d="M.315.011l-.2.034C.109.026.1.007,0,0,.1,0,.21,0,.315.011" transform="translate(160.077 41.271)"></path><path class="c" d="M.078.006A.416.416,0,0,1,0,.007C.049,0,.067,0,.078.006" transform="translate(150.791 43.47)"></path><path class="c" d="M.044.015C.208-.033.076.045.006.1,0,.082-.008.062.044.015" transform="translate(148.541 44.138)"></path><path class="c" d="M.052.036C.016.028,0,.017,0,0,.049.015.059.026.052.036" transform="translate(165.885 41.2)"></path><path class="c" d="M.061.012,0,0A.184.184,0,0,1,.061.012" transform="translate(180.773 44.31)"></path><path class="c" d="M.155.077A1.372,1.372,0,0,1,0,0,.588.588,0,0,1,.155.077" transform="translate(179.845 44.042)"></path><path class="c" d="M.162.015A.625.625,0,0,1,0,0,.381.381,0,0,1,.162.015" transform="translate(162.069 41.284)"></path><path class="c" d="M.2.089,0,.017A.059.059,0,0,1,0,0Z" transform="translate(179.489 43.869)"></path><path class="c" d="M.253.093,0,0A.72.72,0,0,1,.253.093" transform="translate(180.834 44.322)"></path><path class="c" d="M.106.039l-.022,0C-.074-.026.026,0,.106.039" transform="translate(171.401 41.799)"></path><path class="c" d="M.08.049.051.042,0,0Z" transform="translate(178.782 43.457)"></path><path class="c" d="M.09.059A.427.427,0,0,1,0,0L.114.043A.036.036,0,0,0,.09.059" transform="translate(181.852 44.708)"></path><path class="c" d="M.017,0C.069.044.086.07.084.085.015.068-.025.044.017,0" transform="translate(174.649 42.337)"></path><path class="c" d="M0,0A.066.066,0,0,1,.012.04C0,.02,0,.008,0,0" transform="translate(175.264 33.839)"></path><path class="c" d="M0,0,.1.027C.034.018.009.01,0,0" transform="translate(166.517 32.335)"></path><path class="c" d="M.008.014C0,.008,0,.006,0,0L.344.155Z" transform="translate(180.253 35.736)"></path><path class="c" d="M0,.039.112,0A.707.707,0,0,1,0,.039" transform="translate(148.012 35.228)"></path><path class="c" d="M.152.018A.545.545,0,0,0,0,.007C.072,0,.129,0,.152.018" transform="translate(158.677 32.49)"></path><path class="c" d="M.16.044,0,.009C.014-.009.073,0,.16.044" transform="translate(182.997 36.362)"></path><path class="c" d="M.019.006A.057.057,0,0,1,0,.006C0,0,.006,0,.019.006" transform="translate(187.533 39.77)"></path><path class="c" d="M.113.107,0,0C.052.039.121.085.113.107" transform="translate(185.615 38.509)"></path><path class="c" d="M0,0,.053.052C.02.028-.006.007,0,0" transform="translate(185.562 38.456)"></path><path class="c" d="M.41.183A1.726,1.726,0,0,1,0,0Z" transform="translate(87.79 66.548)"></path><path class="c" d="M0,0,.041,0C.011.015,0,.012,0,0" transform="translate(133.241 43.758)"></path><path class="c" d="M.112.017,0,0A.472.472,0,0,1,.112.017" transform="translate(88.014 66.209)"></path><path class="c" d="M.426.247C.3.13-.023.046,0,0c.15.081.387.149.424.247" transform="translate(180.208 34.632)"></path><path class="c" d="M.081,0,0,.069.081,0" transform="translate(129.06 44.623)"></path><path class="c" d="M0,0,.129.021A.3.3,0,0,1,.084.037.365.365,0,0,0,0,0" transform="translate(88.126 66.226)"></path><path class="c" d="M0,.022l0,0L.038,0Z" transform="translate(120.055 56.099)"></path><path class="c" d="M0,.126.166,0A.558.558,0,0,1,0,.126" transform="translate(119.393 56.712)"></path><path class="c" d="M.232.108,0,0A1.5,1.5,0,0,1,.232.108" transform="translate(87.558 66.441)"></path><path class="c" d="M0,.045.086,0A.462.462,0,0,1,0,.045" transform="translate(110.916 63.095)"></path><path class="c" d="M0,.019.082,0C.091.012.086.02,0,.019" transform="translate(159.542 32.39)"></path><path class="c" d="M0,0H0Z" transform="translate(152.25 32.238)"></path><path class="c" d="M.391.009A1.1,1.1,0,0,1,0,.041.9.9,0,0,1,.391.009" transform="translate(152.254 32.198)"></path><path class="c" d="M0,.018.043,0A.315.315,0,0,1,0,.018" transform="translate(151.456 32.466)"></path><path class="c" d="M0,0V.006L0,0Z" transform="translate(159.112 30.955)"></path><path class="c" d="M.1,0A.514.514,0,0,1,0,.038.421.421,0,0,1,.1,0" transform="translate(157.471 31.121)"></path><path class="c" d="M.006,0l0,0L0,0Z" transform="translate(147.734 33.512)"></path><path class="c" d="M47.247,9.18c1.228-.817,2.87-1.787,4.121-2.537a5.874,5.874,0,0,0,1.145-.5l-.027-.149.363-.145c.117-.114-.276.118-.056-.063l.172.01c0-.06.86-.506.238-.286.441-.245.885-.48,1.339-.7.3-.152.229.021.544-.175.048-.072-.132.033-.128-.027.945-.6,1.278-.293,2.184-.782l-.087.018c.175-.037.477-.178.489-.161-.063.189-.2,0-.452.212.075.1.383-.1.4-.006a1.905,1.905,0,0,1,.557-.2c.3-.206.8-.348,1.011-.539a3.018,3.018,0,0,0,.755-.115c.219-.182-.092-.064.241-.223l.081.048c.279-.113.227-.116.206-.144.3-.113.284,0,.648-.18l-.235.012c.291-.072.4-.138.793-.266-.021-.036-.181.017-.292.066.181-.17.382-.074.5-.122-.023.04-.293.141-.137.165.192-.075.448-.041.562-.166l-.236,0a2,2,0,0,0,.708-.16c-.027,0-.019-.018-.035-.029A6.284,6.284,0,0,0,63.748,1.7l-.089,0c.186-.026.3.009.4-.023-.243.11-.167.111-.172.183.3-.206.546-.009,1.073-.224-.019-.038-.163-.05-.3.033a1.047,1.047,0,0,0-.616-.121c.216-.03.464-.081.4-.116l.094.09.318-.09c.072.053-.224.182.078.148.337-.054.147-.157.21-.122.467-.061.217.074.647-.063a.536.536,0,0,0-.171.02c.3-.116.776-.157.84-.311a.192.192,0,0,0-.188-.017l.01.018c-.368-.016.3-.04.16-.134-.008.079.43-.046.629-.1l-.047.093c.719.118-.069-.154.6-.246.433-.023-.154.052.115.061a3.8,3.8,0,0,1,.8-.2c.11-.053.34-.143.346-.236.262,0,.772-.15.93-.081-.425.138-.45-.035-.943.156L69.021.5c.352-.054.811-.073,1.049-.14-.047.024-.065.05-.031.066C70.546.4,70.7.449,71.187.38c.056-.086-.23-.05-.44-.03a4.281,4.281,0,0,1,.818-.115c.019-.074-.33.037-.4-.029l.548-.029V.162c.09.114.415-.05.751-.046A3.4,3.4,0,0,1,73.832.3c.116-.038.149-.071.1-.1-.191.062-.159.018-.228-.01.267,0,.58-.147.428-.188.427.015-.15.071.111.1l.581-.031c-.068.061-.272.079.03.122.253.017.375,0,.707,0-.049-.031.1-.094-.146-.09a.985.985,0,0,1,.508.033c-.362.057.594.053.322.15l.362-.056c-.082,0-.09-.041-.213-.028.1-.093.3.022.421.042A2.569,2.569,0,0,0,77.3.2.864.864,0,0,0,77.75.178c.17.026.011.062.059.094l.579.019c.034-.05.092-.192.006-.216.216.062.069.151.4.175-.183-.117.444-.036.178-.182a3.4,3.4,0,0,1,1.035.053c.177.1-.328.015-.316.1.834.11.859.333,1.47.385H81a2.015,2.015,0,0,1,.542.184C81.449.676,82.011.577,82.631.7c.045.055-.364.041-.276.136.138.022.273.054.409.086.031,0-.012-.027-.062-.05.361.106.709,0,.792.14l.4-.074-.161.033a3.013,3.013,0,0,0,.532.19,1.814,1.814,0,0,0,.81.134c-.083.023-.284.072.039.167.035-.161.7.109.712.023.132.034.381.042.379.112l0-.1c0,.14.474.274.83.408-.027-.212.4.133.61.012.029.149.635.237.661.374.274.1.285-.023.369-.039l.114.092a8.93,8.93,0,0,1,1.007.234l.248.211.123-.009c.035.047.263.159.1.14l.154.056c-.034.123.2.12.485.3.079.01.072-.026.012-.069.152.061.113-.026.212-.032-.119-.014.458.436.027.321-.048.036.175.169.332.209l.136-.068.13.183a3,3,0,0,0,.537.177c-.184-.1-.33-.4.159-.166a3.319,3.319,0,0,1-.476-.338c.1.044.159.058.02-.061.37.214.1.124.473.317.022-.1.142-.083.49.043l-.282-.05a.134.134,0,0,0,.036.048c-.1-.035-.132-.033-.169-.007.076.035.385.323.476.3-.449-.036.61.424.323.4.031.045.289.178.338.15-.273-.235.284.02.267-.07.1.088-.277-.063-.14.055a1.388,1.388,0,0,0,.462.148l-.068-.058.306.113c.022.07-.316-.072-.067.093.079.017.327.183.339.142-.09-.128.046-.161-.17-.3.183.107.767.436.481.391l.223.116c-.161-.037-.585-.178-.15.073l.006-.019c.091.076.179.156.263.241l.157.034c-.017.02.017.069.128.135.045-.009.155.045.168,0,.317.2.264.229.29.28.175.116.253.139.2.036.252.139.676.408.862.482.291.257-.078-.027.069.158a5,5,0,0,1,1.577,1.06c-.228.02.124.119.129.3-.078-.122.544.27.137-.1l.254.219c.235.073-.4-.393-.052-.273.3.237.383.522.77.75-.043-.183.236.25.229.085a.919.919,0,0,0-.239-.248l.075.032c.649.516.1.256.376.6.368.342.355.2.412.176a1.5,1.5,0,0,1,.333.325c-.185-.253-.473-.323-.414-.178.25.051.568.485.636.612-.627-.374-.378-.323-.977-.658-.043-.091.043-.167-.291-.4.154.21-.053.036-.118,0,.1,0-.191-.208-.275-.3-.121-.027.094.265-.244.036l.037-.167c-.141-.08-.017.129-.262-.108.094.175-.12.064.225.364-.512-.232-.615-.569-.918-.876.029.035.02.053.048.088a1.389,1.389,0,0,0-.273-.272c-.243-.144.135.191.051.181q-.175-.144-.363-.271a.023.023,0,0,0-.016,0c-.085-.085-.171-.161-.227-.153a2.693,2.693,0,0,1,.147.272l-.328-.356c.013.071-.372-.15-.116.071l-.565-.415-.106.052c-.127-.111-.12-.13.051-.027-.2-.127-.794-.727-.8-.487-.424-.359-.611-.435-1.153-.826.4.338-.572-.181-.121.122-.3-.111-.3-.24-.515-.374-.227-.072-.183.067.02.219l-.239-.182,0,.02-.2-.174c-.266-.081-.1.064-.354-.057l-.012-.11-.192-.044c.081,0-.054-.1-.236-.2l-.006.02-.217-.122c.2.155-.214-.079-.141.028-.194-.086-.2-.089-.538-.269l.088-.027c-.431-.264-.058.075-.427-.093l.052-.055c-.573-.149-.881-.459-1.31-.556.222.11.132.163.136.143-.336-.162-.9-.386-1.229-.6-.169.05-.212.069-.6-.017-.268-.1-.3-.124-.373-.213-.276-.052-.747-.288-.785-.214-.044-.076-.243-.059-.375-.151l-.04.02.045-.062c-.519.015-.774-.324-1.289-.331l.077.043-.193-.084c-.041.022.037.061.035.1l-.945-.218.2-.008a2.115,2.115,0,0,0-.552-.169c.353.2-.315-.072-.393-.006l.2.077c-.274-.074-.274-.074-.236-.139-.354-.109-.277.083-.594-.061l.239.043c.08-.027-.08-.118-.24-.148-.04,0-.159.014-.039.046-.281-.082-.716-.128-.837-.181-.159-.008-.117.052-.037.087-.6-.176-.276-.051-.881-.2l0,.042-.2-.079-.315.043.116-.037a3.372,3.372,0,0,0-.562-.094l.086.074c-.565-.116-.67,0-1.2-.13-.039.008.044.035.086.049-.5-.143-.39.072-.887-.092.03.023-.027.043-.01.062l-.227-.061.012.083-.179-.139-.149.071-.086-.044c-.257.145-.6.011-.942.112l.063-.1c-.847-.273-1.951.073-2.976-.017l.02.082-.427-.077c-.225.076.139.064.07.109-.455-.022-.194-.112-.723-.11-.267.069.1.056.226.08a6.91,6.91,0,0,0-1.576.066c-.009-.01-.031-.022-.014-.029-.333,0-.764.073-1.127.1.014.037.1.035.2.034a1.681,1.681,0,0,1-.42.038L71,1.788c-.275.052-.815.064-.866.154.029-.036.007-.094-.232-.057-.113.148-.661.028-1.03.17a2.036,2.036,0,0,0,.251-.008,1.337,1.337,0,0,1-.541.035l.06.04-.9.1c-.108.141-.84.145-.76.227-.313.077.252-.115-.149-.037-.094.075-.365.057-.33.133h.045l-.279.057.192.038c-.243.038-.436,0-.462-.056-.216.1-.548.132-.633.23l.088,0c-.64.139-.983.5-1.514.5-.034.02-.023.039.053.017l-.386.112.11.032-.662.11.02.037c-.412.155-1.08.321-1.614.512l.085-.011c-.6.15-.547.24-.987.351a.115.115,0,0,0,.051,0l-.383.137.1.007c-.318.012-.757.425-.614.282a2.167,2.167,0,0,1-.527.067c-.413.163-.081.09-.322.225a4.467,4.467,0,0,0-.76.286l.025.034c-.188.078-.315.1-.577.214l.085-.017c-.457.112-.475.347-.881.333-.165.1-.5.251-.452.316-.539.208-.951.383-1.479.612-.018.163-.113.05-.382.284l-.011-.076c-.721.373-1.446.976-2.222,1.413l.016.075-.194.022c-.8.524-1.838,1.212-2.464,1.65a4.5,4.5,0,0,0-.9.5l.041-.016a15.509,15.509,0,0,0-1.782,1.264c.057,0,.01.057.089.022-.193.043-.351.271-.478.373l.116-.161a1.051,1.051,0,0,0-.466.433l-.315.15c-.013.019-.033.05-.029.062l-.071.008-.083.186a3.219,3.219,0,0,1-.609.323c0,.046-.233.27-.033.124l-.933.827.124-.153c-.029-.071-.342.142-.466.3.23-.124.083.063.037.175-.153.083.069-.145-.024-.116a2.63,2.63,0,0,0-.613.482l.116-.062c-.237.17-.249.357-.466.544-.229.13-.334.3-.378.17-.293.231-.05.158-.13.249a1.469,1.469,0,0,0-.53.548c-.274.007-.688.732-.847.675l-.161.274c-.036-.022-.143-.048-.335.113-.138.194-.049.207-.071.286h-.219c-.859,1.052-2.208,2.226-3.175,3.368-.5.442-1.144.98-1.689,1.537l.076-.047-.527.569.355-.442a3.779,3.779,0,0,0-.365.291,18.451,18.451,0,0,1-2.165,2.132c-.619.331-.23.419-.8.763.052-.025.084-.02.133-.041a17.8,17.8,0,0,1-1.47,1.042c.175.079-.349.3-.242.326l-.091-.016c-.092.133-.367.382-.294.386l-.3.132.025.073c-.31.274-1.045.78-1.126,1.029-.868.56-2.164,1.545-3.233,2.279a3.935,3.935,0,0,0-.755.409l-.222.241a3.413,3.413,0,0,0-.812.4c.006.008.019.008.039,0a3.313,3.313,0,0,1-.789.4c-.289.167-.552.366-.424.387-.094-.106-.617.355-.617.355s-.938.537-2.479,1.238a30.044,30.044,0,0,1-6.124,2.015,23.8,23.8,0,0,1-7.268.427A16.973,16.973,0,0,1,.8,35.934c-.118-.1-.482-.248-.316-.29-.281-.1-.447-.022-.482-.1.4.063-.071-.211.333-.189l-.239-.084c-.036-.062.316.148.281.043l.034.147a.93.93,0,0,0,.4.011c.174.1.249.3.718.334L1.4,35.762c.365.091.243-.03.324-.034l-.081-.017.322,0c-.244-.006-.6-.2-.4-.148.442.065-.119,0,.2.1.2.051.159-.03.159-.072l.362.083c0-.062-.242-.047-.081-.078l.446.157c.114-.136.487.168.724.058-.325-.093.038-.047-.006-.1l.81.133c.08-.011-.207-.078-.085-.052.159-.02.246.073.329.082.076-.031.608.074.6-.032.558-.016.22.156.742.139.072-.056-.409-.047-.175-.093l.533.061a.385.385,0,0,0-.3-.108c1.452.011,2.214-.346,3.513-.337.178-.084-.135-.043-.268-.084a9.082,9.082,0,0,0,2.086-.379l.023.058c1.069-.343,2.39-.538,3.58-.956l-.133.081a3.126,3.126,0,0,0,.658-.1c.02-.04-.182-.081.173-.167-.065.044-.2.113-.152.127.99-.452,3.135-1.236,4.688-2.118a40.154,40.154,0,0,0,6.254-3.931c-.293.213-.08.243.119.051.445-.647,1.052-.763,1.544-1.376,1.128-.82,1.919-1.8,3.012-2.534l-.03-.07c.121-.155.2-.151.349-.286l-.017-.012c.335-.349.814-.692.992-.908l.069.048c.213-.194.064-.149.31-.318l-.034-.024.3-.181c-.122-.081.581-.568.7-.778a13.827,13.827,0,0,0,1.222-1.108,7.8,7.8,0,0,1,.812-.95c.63-.592,1.528-1.445,2.3-2.235l.051.081.211-.2c-.017-.012,0-.047-.035-.023.087-.231.5-.442.624-.649-.048.162-.139.149-.255.266-.138.2.084.1.285-.15l-.019-.011.192-.116c-.033-.069.087-.231.056-.3.7-.648,1.261-1,1.962-1.695-.13.009.54-.463.3-.433.475-.36,0,.149.272.042.12-.114.275-.2.262-.26-.08.027.043-.154-.066-.073l.3-.256c.021-.033-.057.01-.1.032.662-.472,1.016-1.018,1.632-1.42.074,0-.213.2-.139.2.63-.387.429-.494,1.014-.861l-.155.034a1.344,1.344,0,0,0,.566-.382c0-.1-.283.139-.446.217.194-.158.7-.534.6-.355a1.641,1.641,0,0,0,.4-.408c.016.013-.185.216-.024.139A12.6,12.6,0,0,1,46.592,9.8c-.016-.015-.006-.06-.047-.042.386-.15.241-.279.7-.581" transform="translate(87.4 30.798)"></path><path class="c" d="M.307.018.108.05C.106.032.1.012,0,0Z" transform="translate(159.009 30.904)"></path><path class="c" d="M.075.007A.48.48,0,0,1,0,.007C.047,0,.065,0,.075.007" transform="translate(149.94 32.829)"></path><path class="c" d="M.044.012C.2-.028.074.043.005.09,0,.077-.007.056.044.012" transform="translate(147.735 33.421)"></path><path class="c" d="M.05.039C.015.029-.005.017,0,0,.047.017.057.029.05.039" transform="translate(164.653 30.958)"></path><path class="c" d="M.06.011,0,0A.169.169,0,0,1,.06.011" transform="translate(179.078 34.174)"></path><path class="c" d="M.15.075A1.23,1.23,0,0,1,0,0,.581.581,0,0,1,.15.075" transform="translate(178.175 33.917)"></path><path class="c" d="M.157.019A.546.546,0,0,1,0,0,.393.393,0,0,1,.157.019" transform="translate(160.945 30.967)"></path><path class="c" d="M.2.086,0,.016,0,0Z" transform="translate(177.829 33.748)"></path><path class="c" d="M.245.093A2.351,2.351,0,0,0,0,0,.6.6,0,0,1,.245.093" transform="translate(179.138 34.185)"></path><path class="c" d="M.1.043.08.037C-.071-.029.025.005.1.043" transform="translate(170.001 31.622)"></path><path class="c" d="M.077.048.049.042,0,0Z" transform="translate(177.153 33.325)"></path><path class="c" d="M.087.058A.369.369,0,0,1,0,0L.111.042A.036.036,0,0,0,.087.058" transform="translate(180.122 34.575)"></path><path class="c" d="M.018,0c.05.044.066.069.064.084C.015.067-.025.044.018,0" transform="translate(173.148 32.195)"></path><path class="c" d="M0,0A.073.073,0,0,1,.011.042C0,.021,0,.009,0,0" transform="translate(173.458 23.64)"></path><path class="c" d="M0,0,.1.027C.033.018.009.01,0,0" transform="translate(164.848 22.1)"></path><path class="c" d="M.008.014C0,.008,0,.006,0,0L.338.156Z" transform="translate(178.365 25.529)"></path><path class="c" d="M0,.039.11,0A.666.666,0,0,1,0,.039" transform="translate(146.582 24.745)"></path><path class="c" d="M.149.018A.494.494,0,0,0,0,.007C.07,0,.127,0,.149.018" transform="translate(157.123 22.176)"></path><path class="c" d="M.159.043,0,.009C.015-.009.074,0,.159.043" transform="translate(181.07 26.149)"></path><path class="c" d="M.019.006A.057.057,0,0,1,0,.006C0,0,.006,0,.019.006" transform="translate(185.532 29.518)"></path><path class="c" d="M.11.108,0,0C.052.038.119.085.11.108" transform="translate(183.644 28.273)"></path><path class="c" d="M0,0,.053.052C.021.027-.006.007,0,0" transform="translate(183.592 28.221)"></path><path class="c" d="M.415.159A1.611,1.611,0,0,1,0,0Z" transform="translate(87.425 56.681)"></path><path class="c" d="M0,0,.04,0C.011.014,0,.011,0,0" transform="translate(131.912 32.943)"></path><path class="c" d="M.111.012,0,0A.484.484,0,0,1,.111.012" transform="translate(87.629 56.33)"></path><path class="c" d="M.42.243C.3.127-.023.045,0,0,.15.079.383.146.42.243" transform="translate(178.33 24.431)"></path><path class="c" d="M.081,0,0,.067.081,0" transform="translate(127.762 33.717)"></path><path class="c" d="M0,0,.128.013A.283.283,0,0,1,.085.031.406.406,0,0,0,0,0" transform="translate(87.739 56.342)"></path><path class="c" d="M0,.021l0,0L.038,0Z" transform="translate(118.893 45.03)"></path><path class="c" d="M0,.126.161,0A.534.534,0,0,1,0,.126" transform="translate(118.251 45.641)"></path><path class="c" d="M.235.094,0,0A1.742,1.742,0,0,1,.235.094" transform="translate(87.19 56.587)"></path><path class="c" d="M0,.047.083,0A.456.456,0,0,1,0,.047" transform="translate(110.053 52.11)"></path><path class="c" d="M0,.019.08,0C.09.012.085.02,0,.019" transform="translate(157.975 22.078)"></path><path class="c" d="M0,0H0Z" transform="translate(150.79 21.831)"></path><path class="c" d="M.387.01A.915.915,0,0,1,0,.031,1.014,1.014,0,0,1,.387.01" transform="translate(150.793 21.8)"></path><path class="c" d="M0,.018.042,0A.261.261,0,0,1,0,.018" transform="translate(150.003 22.041)"></path><path class="c" d="M0,0V.006L0,0Z" transform="translate(157.566 20.64)"></path><path class="c" d="M.1,0A.492.492,0,0,1,0,.038.4.4,0,0,1,.1,0" transform="translate(155.946 20.782)"></path><path class="c" d="M.006,0l0,0L0,0Z" transform="translate(146.321 23.022)"></path><path class="c" d="M46.31,8.711c1.2-.815,2.864-1.7,4.092-2.449a5.658,5.658,0,0,0,1.141-.471l-.027-.15.357-.141c.117-.113-.27.116-.054-.064l.168.012c0-.067.855-.485.236-.285L53.554,4.5c.293-.149.223.023.534-.169.05-.07-.13.03-.124-.029.95-.549,1.262-.273,2.166-.735l-.088.015c.176-.029.478-.157.49-.14-.065.184-.2,0-.454.191.074.1.384-.083.4.01a2.116,2.116,0,0,1,.55-.188c.3-.2.782-.349,1-.523a2.429,2.429,0,0,0,.748-.1c.216-.181-.091-.065.237-.222l.08.049c.274-.112.224-.115.2-.143.3-.11.279,0,.643-.164h-.233a6.423,6.423,0,0,0,.787-.241c-.021-.037-.178.016-.287.063.179-.168.377-.072.488-.118-.023.04-.289.139-.136.164.188-.074.441-.038.552-.163l-.231,0a2,2,0,0,0,.7-.155c-.027,0-.018-.018-.033-.03a4.533,4.533,0,0,0,1.123-.306l-.087,0c.183-.025.3.01.39-.021-.24.108-.165.11-.171.183.3-.2.535-.017,1.061-.2-.019-.038-.161-.055-.3.02a.975.975,0,0,0-.607-.129c.212-.029.456-.079.394-.114l.091.092.318-.077c.069.057-.226.171.075.15.335-.04.147-.152.21-.115.458-.059.212.075.636-.06a.521.521,0,0,0-.169.019c.3-.115.765-.154.828-.308a.182.182,0,0,0-.184-.018l.009.018c-.362-.017.291-.04.159-.133-.009.076.429-.022.625-.072L65.9.9c.707.121-.067-.154.594-.245.424-.021-.153.052.113.062A3.113,3.113,0,0,1,67.4.526c.11-.049.338-.125.344-.22.257,0,.762-.149.916-.08-.42.138-.444-.036-.929.154l.154.07c.348-.053.8-.071,1.034-.137-.046.024-.065.05-.031.065A10.645,10.645,0,0,0,70.016.356c.056-.089-.226-.048-.433-.035a4.616,4.616,0,0,1,.808-.11c.018-.075-.325.036-.389-.03l.54-.028,0-.015c.089.116.41-.057.743-.037a3.633,3.633,0,0,1,1.341.2c.116-.039.149-.071.1-.1-.189.063-.157.018-.224-.01.261,0,.571-.147.422-.188.42.016-.149.071.109.1L73.6.085c-.067.063-.268.077.027.123.25.017.37,0,.7,0-.047-.031.1-.094-.143-.09a.944.944,0,0,1,.5.034c-.357.056.585.053.317.149l.356-.042c-.082,0-.088-.045-.209-.038.1-.089.29.041.414.055a2.444,2.444,0,0,0,.481-.04.829.829,0,0,0,.442-.022c.167.027.01.062.058.1.188.009.381.008.569.024.034-.049.092-.188.009-.216.213.069.065.161.391.187-.179-.118.437-.037.176-.183a3.3,3.3,0,0,1,1.02.052c.174.1-.323.015-.314.1.824.1.842.358,1.445.4h-.158a1.972,1.972,0,0,1,.533.183c-.09-.107.469-.228,1.076-.081.042.06-.358.03-.274.129l.4.093c.031,0-.011-.028-.061-.05.356.1.7,0,.781.137l.4-.075-.159.035c.04.061.444.147.522.192a1.614,1.614,0,0,0,.8.141c-.082.023-.281.073.037.167.036-.162.691.1.7.02.13.032.375.042.371.116l.006-.106c-.008.148.463.281.814.412-.025-.211.389.131.6.009.03.141.621.246.647.382.27.1.282-.024.365-.04l.111.091a8.679,8.679,0,0,1,.993.23c.083.068.161.141.241.216l.121-.008c.034.047.257.157.1.139l.151.055c-.034.123.2.118.477.292.078.01.072-.026.013-.069.15.061.111-.026.21-.032-.117-.013.449.432.024.319-.048.037.17.168.325.207l.136-.068.123.19a2.977,2.977,0,0,0,.529.173c-.182-.093-.322-.4.159-.165a3.192,3.192,0,0,1-.467-.335c.1.044.157.057.019-.061.364.212.1.124.466.314.023-.1.141-.083.485.041l-.278-.049a.114.114,0,0,0,.035.048c-.1-.034-.13-.032-.167-.006.075.035.379.319.468.293-.445-.033.6.42.316.393.031.042.279.187.329.154-.268-.232.282.019.265-.071.1.087-.274-.061-.14.056a1.39,1.39,0,0,0,.457.145l-.068-.058.3.111c.021.07-.314-.07-.067.093.078.017.322.18.333.14-.088-.128.048-.162-.165-.3.18.106.756.43.473.386l.217.116c-.155-.041-.576-.175-.147.071l.006-.02.255.245.155.032c-.017.02.017.069.125.134.044-.009.153.044.167,0,.313.2.26.226.285.277.171.114.249.136.2.035.251.133.664.407.847.479.287.254-.075-.027.069.157a4.776,4.776,0,0,1,1.55,1.046c-.226.022.123.118.126.3-.076-.12.537.265.136-.1l.25.216c.233.072-.391-.387-.05-.271.292.234.377.517.757.741-.04-.181.23.249.226.085a.911.911,0,0,0-.235-.246l.076.03c.638.512.094.256.366.594.362.337.351.192.408.172a1.463,1.463,0,0,1,.328.321c-.183-.251-.468-.318-.41-.174.249.05.56.478.627.6-.62-.367-.374-.318-.966-.648-.042-.089.044-.166-.284-.392.15.207-.054.037-.117,0,.1,0-.188-.206-.27-.3-.119-.026.09.262-.241.037l.036-.166c-.138-.079-.017.129-.257-.1.092.173-.121.064.219.36-.506-.227-.6-.562-.9-.864.029.034.02.052.048.086a1.4,1.4,0,0,0-.269-.268c-.239-.142.132.19.05.18-.117-.092-.232-.186-.355-.27a.027.027,0,0,0-.017,0c-.083-.083-.168-.159-.224-.151a2.622,2.622,0,0,1,.145.27l-.324-.352c.015.07-.366-.148-.114.072l-.556-.411-.1.053c-.127-.11-.118-.129.05-.027-.2-.124-.776-.726-.782-.484-.416-.354-.6-.428-1.134-.815.385.34-.559-.186-.121.12-.293-.114-.3-.239-.5-.372-.225-.071-.183.067.017.218l-.234-.181,0,.021-.2-.172c-.264-.08-.1.064-.349-.055l-.011-.11-.19-.042c.082,0-.055-.1-.23-.2l0,.02-.214-.122c.2.153-.211-.078-.14.029-.19-.085-.194-.089-.529-.266l.087-.028c-.424-.26-.06.076-.422-.09l.052-.054c-.567-.144-.862-.469-1.286-.556.217.109.129.162.133.141a10.179,10.179,0,0,1-1.209-.6c-.166.05-.208.07-.592-.016-.264-.1-.3-.122-.366-.211-.271-.052-.737-.281-.773-.213-.04-.081-.238-.067-.366-.156l-.04.02.045-.062c-.514.016-.762-.321-1.271-.326l.076.043-.19-.085c-.04.021.035.063.033.106-.3-.094-.619-.152-.928-.227l.2-.008a2.06,2.06,0,0,0-.544-.167c.347.2-.31-.071-.389,0l.192.077c-.27-.073-.27-.073-.232-.138-.348-.108-.27.067-.581-.073l.234.046c.078-.024-.078-.124-.234-.15-.04,0-.157.014-.04.046-.277-.081-.706-.126-.824-.179-.157-.007-.116.052-.038.087-.59-.177-.273-.041-.866-.215l0,.043-.2-.079-.31.043.115-.037a3.3,3.3,0,0,0-.554-.092l.084.074c-.557-.11-.659,0-1.184-.144-.038.007.044.034.085.048-.487-.142-.386.073-.875-.091.029.023-.027.044-.01.063l-.224-.061.011.083-.176-.139-.147.071L77.2,1.5c-.253.127-.59,0-.929.1l.062-.1a4.119,4.119,0,0,0-1.4-.1,8.349,8.349,0,0,1-1.534.054l.02.082c-.14-.03-.28-.069-.42-.091-.223.076.136.064.067.11-.448-.024-.188-.113-.71-.111-.265.068.1.056.22.079a8.234,8.234,0,0,0-1.552.045c-.009-.011-.03-.022-.013-.029-.329-.006-.753.072-1.112.1.013.036.1.034.192.033a1.3,1.3,0,0,1-.414.032l.142.057c-.274.033-.807.037-.857.132.029-.036.008-.1-.226-.058-.115.143-.65.038-1.017.157a2.04,2.04,0,0,0,.249,0,1.351,1.351,0,0,1-.536.011l.059.042-.887.092c-.107.148-.829.135-.751.214-.312.062.251-.1-.147-.044-.1.067-.361.053-.328.128h.044l-.274.056.188.039c-.239.037-.429,0-.454-.058-.214.094-.54.132-.623.226h.087c-.638.1-.977.475-1.5.473-.033.02-.022.039.052.017l-.381.11.107.033-.657.083.02.037c-.408.147-1.06.332-1.6.489l.086-.007a10.171,10.171,0,0,0-.978.335.126.126,0,0,0,.05,0l-.379.135.1.007c-.31.018-.757.4-.611.264a2.73,2.73,0,0,1-.521.055c-.408.16-.08.089-.318.223a5.99,5.99,0,0,0-.752.274l.024.035c-.187.071-.317.083-.573.193l.083-.017c-.449.109-.469.345-.868.327-.161.109-.5.235-.45.3-.542.18-.941.372-1.462.587-.021.161-.113.047-.385.267l-.01-.075c-.712.362-1.436.947-2.208,1.364l.017.075-.192.02c-.806.5-1.82,1.179-2.452,1.588a3.742,3.742,0,0,0-.9.485l.039-.015a12.5,12.5,0,0,0-1.77,1.221c.054,0,.009.058.086.024-.19.041-.354.257-.482.353l.119-.154a.983.983,0,0,0-.471.413l-.312.148c-.013.019-.032.05-.029.061l-.07.007-.08.185a2.642,2.642,0,0,1-.606.309c-.007.045-.237.258-.036.121-.316.257-.621.532-.929.8l.125-.149c-.027-.071-.341.131-.466.28.23-.116.083.065.035.174-.152.078.07-.142-.022-.116a2.385,2.385,0,0,0-.609.47l.115-.061c-.232.168-.249.349-.464.53-.228.123-.333.286-.377.159-.289.227-.049.158-.128.247a1.482,1.482,0,0,0-.527.535c-.274,0-.681.715-.839.655l-.161.269c-.034-.023-.141-.05-.331.1-.138.19-.05.2-.071.282l-.217,0c-.851,1.031-2.182,2.181-3.132,3.3-.489.436-1.126.964-1.659,1.515l.075-.046-.516.562.348-.437a3.93,3.93,0,0,0-.358.287,18.434,18.434,0,0,1-2.112,2.114c-.611.328-.22.417-.778.761.051-.025.083-.021.131-.042-.546.429-.852.653-1.434,1.044.177.078-.341.3-.234.323l-.09-.016c-.088.134-.353.384-.281.388l-.289.134.027.073c-.3.277-1.017.782-1.086,1.035-.847.561-2.086,1.572-3.121,2.322a3.9,3.9,0,0,0-.731.425l-.212.243a3.343,3.343,0,0,0-.786.417c.007.008.02.008.039,0a3.322,3.322,0,0,1-.765.415c-.28.175-.53.38-.4.4-.1-.1-.6.37-.6.37s-.9.56-2.392,1.309A31.219,31.219,0,0,1,12.94,36.4a24.012,24.012,0,0,1-7.116.842,15.76,15.76,0,0,1-5.015-.9c-.123-.1-.488-.219-.327-.272-.282-.086-.442,0-.482-.078.4.041-.08-.206.319-.207l-.24-.071c-.039-.06.318.129.279.026l.041.145a.871.871,0,0,0,.4-.013c.176.087.262.29.725.292l-.122-.03c.364.07.238-.046.317-.053l-.081-.013.318-.016c-.241.008-.6-.166-.406-.123.439.037-.117.014.2.083.2.04.155-.039.152-.081l.361.06c0-.062-.24-.033-.083-.074l.448.13c.1-.143.489.138.715.013-.325-.071.035-.049-.012-.1l.8.082c.078-.016-.208-.064-.086-.048.155-.03.247.056.328.061.073-.036.6.035.584-.071.548-.052.226.136.738.082.068-.063-.4-.017-.178-.081L6.051,36a.37.37,0,0,0-.3-.088c1.428-.072,2.155-.487,3.436-.547.17-.094-.136-.035-.27-.07a9.123,9.123,0,0,0,2.033-.5l.026.057c1.035-.392,2.326-.661,3.479-1.127l-.126.088a3.406,3.406,0,0,0,.644-.135c.018-.04-.183-.072.163-.173-.062.047-.2.12-.145.133.953-.5,3.037-1.354,4.536-2.279a41.928,41.928,0,0,0,6.047-4.068c-.284.218-.071.244.119.049.422-.652,1.024-.775,1.494-1.391,1.1-.833,1.866-1.812,2.936-2.547l-.031-.07c.117-.154.19-.153.343-.285l-.017-.012c.328-.346.8-.692.97-.906l.07.048c.21-.191.063-.147.3-.316l-.035-.023.3-.181c-.123-.081.568-.566.685-.772a13.933,13.933,0,0,0,1.2-1.1,7.49,7.49,0,0,1,.8-.94c.622-.586,1.511-1.424,2.279-2.2l.05.081.211-.193c-.017-.012,0-.046-.035-.023.085-.229.5-.432.618-.638-.046.161-.136.148-.251.262-.138.194.084.1.281-.148l-.018-.011.19-.114c-.033-.07.087-.228.056-.3.7-.634,1.253-.978,1.952-1.654-.13,0,.536-.451.3-.425.477-.348,0,.149.27.047.121-.11.276-.193.264-.251-.08.024.044-.152-.065-.075l.3-.249c.019-.033-.058.009-.1.03.655-.461,1.019-.989,1.628-1.38.073.006-.216.188-.141.2.63-.369.442-.468,1.015-.83l-.151.032a1.319,1.319,0,0,0,.557-.376c0-.1-.281.135-.44.212.19-.157.7-.522.592-.346a1.594,1.594,0,0,0,.41-.389c.016.014-.188.208-.027.136.3-.275.793-.645,1.186-.938-.015-.015-.006-.059-.046-.044.387-.135.247-.263.708-.551" transform="translate(87.031 20.508)"></path><path class="c" d="M.3.018.106.05C.1.032.093.012,0,0Z" transform="translate(157.465 20.591)"></path><path class="c" d="M.074.008H0C.046,0,.064,0,.074.008" transform="translate(148.503 22.374)"></path><path class="c" d="M.044.011C.2-.028.074.043.006.09,0,.075-.007.056.044.011" transform="translate(146.322 22.932)"></path><path class="c" d="M.049.039C.015.029-.005.017,0,0,.046.017.056.029.049.039" transform="translate(163.025 20.707)"></path><path class="c" d="M.059.011,0,0A.164.164,0,0,1,.059.011" transform="translate(177.221 23.971)"></path><path class="c" d="M.149.074A1.2,1.2,0,0,1,0,0,.567.567,0,0,1,.149.074" transform="translate(176.33 23.719)"></path><path class="c" d="M.154.019A.526.526,0,0,1,0,0,.379.379,0,0,1,.154.019" transform="translate(159.372 20.677)"></path><path class="c" d="M.192.085,0,.016,0,0Z" transform="translate(175.989 23.553)"></path><path class="c" d="M.238.1C.164.069.067.02,0,0A.619.619,0,0,1,.238.1" transform="translate(177.28 23.982)"></path><path class="c" d="M.1.043.079.037C-.071-.029.025.005.1.043" transform="translate(168.288 21.413)"></path><path class="c" d="M.076.048.049.042,0,0Z" transform="translate(175.327 23.124)"></path><path class="c" d="M.086.057A.417.417,0,0,1,0,0L.11.041A.036.036,0,0,0,.086.057" transform="translate(178.245 24.374)"></path><path class="c" d="M.017,0C.066.044.082.069.08.084.014.067-.024.044.017,0" transform="translate(171.388 21.989)"></path><path class="c" d="M0,0A.073.073,0,0,1,.011.042C0,.021,0,.009,0,0" transform="translate(171.405 13.356)"></path><path class="c" d="M0,0,.1.027C.034.018.009.01,0,0" transform="translate(162.775 11.822)"></path><path class="c" d="M.008.014C0,.008,0,.006,0,0L.339.155Z" transform="translate(176.325 15.247)"></path><path class="c" d="M0,.039.111,0A.7.7,0,0,1,0,.039" transform="translate(144.474 14.506)"></path><path class="c" d="M.15.018A.534.534,0,0,0,0,.007C.071,0,.128,0,.15.018" transform="translate(155.033 11.91)"></path><path class="c" d="M.159.043,0,.009C.015-.009.074,0,.159.043" transform="translate(179.035 15.868)"></path><path class="c" d="M.019.006A.057.057,0,0,1,0,.006C0,0,.006,0,.019.006" transform="translate(183.509 19.242)"></path><path class="c" d="M.11.108C.079.078.04.038,0,0,.052.038.119.085.11.108" transform="translate(181.617 17.995)"></path><path class="c" d="M0,0,.053.052C.021.027-.006.007,0,0" transform="translate(181.564 17.943)"></path><path class="c" d="M.414.163A1.584,1.584,0,0,1,0,0Z" transform="translate(85.156 46.358)"></path><path class="c" d="M0,0,.04,0C.011.014,0,.011,0,0" transform="translate(129.787 22.754)"></path><path class="c" d="M.111.013,0,0A.475.475,0,0,1,.111.013" transform="translate(85.363 46.009)"></path><path class="c" d="M.42.244C.3.128-.023.046,0,0,.15.08.384.147.42.244" transform="translate(176.289 14.148)"></path><path class="c" d="M.081,0,0,.067.081,0" transform="translate(125.632 23.54)"></path><path class="c" d="M0,0,.128.014A.283.283,0,0,1,.085.032.408.408,0,0,0,0,0" transform="translate(85.473 46.021)"></path><path class="c" d="M0,.023l0,0L.038,0Z" transform="translate(116.745 34.879)"></path><path class="c" d="M0,.126.161,0A.534.534,0,0,1,0,.126" transform="translate(116.101 35.491)"></path><path class="c" d="M.235.1,0,0A1.624,1.624,0,0,1,.235.1" transform="translate(84.921 46.263)"></path><path class="c" d="M0,.047.084,0A.492.492,0,0,1,0,.047" transform="translate(107.863 41.952)"></path><path class="c" d="M0,.019.081,0C.09.012.085.02,0,.019" transform="translate(155.887 11.811)"></path><path class="c" d="M0,0H0Z" transform="translate(148.685 11.579)"></path><path class="c" d="M.388.009A.9.9,0,0,1,0,.03,1.06,1.06,0,0,1,.388.009" transform="translate(148.688 11.549)"></path><path class="c" d="M0,.018.042,0A.261.261,0,0,1,0,.018" transform="translate(147.898 11.794)"></path><path class="c" d="M0,0V.006L0,0Z" transform="translate(155.475 10.375)"></path><path class="c" d="M.1,0A.515.515,0,0,1,0,.038.4.4,0,0,1,.1,0" transform="translate(153.852 10.521)"></path><path class="c" d="M.006,0l0,0L0,0Z" transform="translate(144.21 12.784)"></path><path class="c" d="M46.45,8.783c1.2-.821,2.868-1.711,4.1-2.462a6.076,6.076,0,0,0,1.141-.475l-.026-.151.358-.141c.117-.114-.272.116-.055-.063l.17.01c0-.062.851-.494.236-.284L53.7,4.547c.293-.15.225.023.536-.171.048-.072-.13.032-.125-.028.948-.559,1.266-.273,2.167-.744l-.087.015c.176-.03.479-.158.49-.141-.064.183-.2,0-.453.192.074.1.383-.084.4.009a2.15,2.15,0,0,1,.553-.189c.3-.2.784-.349,1-.527a2.476,2.476,0,0,0,.75-.1c.217-.181-.09-.065.239-.222l.079.048c.275-.112.225-.115.2-.143.3-.108.278,0,.643-.168l-.234,0a6.558,6.558,0,0,0,.79-.243c-.021-.036-.178.017-.289.065.18-.169.379-.073.489-.12-.023.04-.289.14-.136.165.19-.075.442-.039.555-.164l-.232,0a1.95,1.95,0,0,0,.7-.157c-.027,0-.019-.018-.034-.029a4.866,4.866,0,0,0,1.125-.309l-.088,0c.184-.025.3.01.392-.021-.24.109-.166.11-.171.183.3-.2.535-.018,1.062-.208-.018-.038-.162-.055-.3.02a1.015,1.015,0,0,0-.607-.125c.212-.029.458-.079.394-.114l.092.091.317-.08c.07.057-.225.171.076.149.335-.039.147-.151.21-.115.46-.059.214.076.638-.06a.5.5,0,0,0-.169.02c.3-.116.766-.155.829-.309a.182.182,0,0,0-.184-.018l.009.018c-.362-.017.291-.039.159-.134-.01.071.429-.024.625-.075l-.047.093c.708.12-.067-.155.6-.245.426-.022-.153.051.112.061a3.432,3.432,0,0,1,.79-.2c.11-.049.339-.125.346-.22.257,0,.762-.149.918-.08C68.408.373,68.385.2,67.9.39l.154.069c.349-.053.8-.071,1.037-.138-.047.025-.065.05-.032.066.5-.042.655.05,1.136-.027.055-.088-.227-.048-.435-.035a4.742,4.742,0,0,1,.81-.11c.019-.074-.327.036-.39-.029l.541-.029V.143c.088.116.409-.053.743-.041A3.676,3.676,0,0,1,72.8.3c.115-.038.148-.071.1-.1-.189.063-.157.019-.225-.01.263,0,.573-.147.424-.188.421.016-.15.072.109.1.191-.015.382-.009.574-.014-.067.062-.268.076.029.122.25.017.371,0,.7,0-.048-.031.1-.094-.143-.09a.958.958,0,0,1,.5.034c-.358.056.586.052.317.149.119-.021.239-.03.358-.045-.082,0-.089-.044-.211-.038.1-.089.292.041.416.055a2.445,2.445,0,0,0,.482-.04.838.838,0,0,0,.444-.021c.167.026.01.062.056.094L77.3.328c.034-.05.092-.189.008-.216.213.069.066.16.392.186-.18-.117.438-.036.177-.182A3.311,3.311,0,0,1,78.9.169c.174.1-.324.015-.314.1.824.1.844.354,1.448.4h-.159a1.979,1.979,0,0,1,.535.183c-.09-.108.469-.225,1.078-.083.043.06-.358.03-.273.129l.4.093c.031,0-.011-.028-.06-.05.355.1.7,0,.782.138l.4-.075-.159.034a3.352,3.352,0,0,0,.524.191,1.62,1.62,0,0,0,.8.14c-.082.024-.282.074.037.167.036-.161.692.107.7.021.13.034.376.04.372.115l0-.106c-.007.148.465.281.817.412-.026-.211.39.132.6.01.029.142.623.244.647.381.271.1.283-.024.367-.04l.111.091a8.75,8.75,0,0,1,1,.23c.082.069.162.14.241.216l.122-.007c.034.046.259.156.1.139l.152.054c-.035.124.2.119.479.293.077.01.071-.026.012-.069.15.061.111-.026.21-.031-.118-.014.45.432.024.319-.048.036.172.167.327.207l.136-.069.124.189a2.96,2.96,0,0,0,.531.175c-.183-.094-.324-.4.158-.166a3.312,3.312,0,0,1-.469-.335c.1.044.157.057.02-.061.365.212.1.124.467.314.022-.1.141-.083.485.041l-.279-.048a.123.123,0,0,0,.036.047c-.1-.033-.131-.031-.168,0,.075.034.38.319.469.293-.445-.034.6.42.317.393.032.043.281.186.331.154-.269-.233.282.019.266-.071.1.087-.275-.061-.14.056a1.386,1.386,0,0,0,.456.145l-.066-.057.3.111c.021.07-.313-.07-.067.092.078.018.323.181.335.141-.088-.128.047-.162-.166-.3.18.1.757.43.474.386L94,5.312c-.157-.04-.579-.176-.149.072l.006-.02c.088.077.171.163.257.244l.154.033c-.017.019.017.069.127.134.044-.01.152.043.166,0,.314.2.26.226.286.277.172.115.249.137.2.035.251.134.665.407.85.48.287.254-.077-.027.067.157a4.778,4.778,0,0,1,1.555,1.048c-.226.021.123.118.126.3-.076-.121.538.265.137-.1l.251.216c.232.072-.393-.388-.05-.271.292.234.378.518.759.743-.041-.182.231.249.226.084a.882.882,0,0,0-.235-.246l.075.031c.64.512.1.255.368.594.363.338.351.193.408.173a1.465,1.465,0,0,1,.329.321c-.183-.251-.468-.318-.41-.174.249.05.561.479.627.6-.62-.368-.373-.319-.966-.648-.042-.09.044-.167-.286-.394.151.208-.053.038-.117,0,.1,0-.187-.206-.271-.3-.12-.026.092.263-.241.037l.037-.166c-.139-.079-.018.128-.259-.106.092.174-.12.064.22.36-.506-.227-.607-.562-.9-.865.028.034.019.053.047.087a1.379,1.379,0,0,0-.269-.269c-.24-.143.131.19.05.18-.116-.093-.233-.186-.356-.27a.027.027,0,0,0-.017,0c-.084-.084-.168-.159-.224-.151a2.494,2.494,0,0,1,.144.27L96.4,7.471c.013.071-.368-.148-.116.072l-.557-.412-.1.053c-.126-.11-.118-.129.05-.027-.2-.124-.779-.726-.784-.484-.417-.355-.6-.429-1.137-.817.386.339-.561-.185-.12.12-.3-.113-.3-.239-.507-.372-.225-.071-.183.067.017.218l-.235-.181,0,.02-.2-.172c-.264-.079-.1.065-.35-.054l-.012-.111-.19-.042c.082,0-.055-.1-.23-.2l0,.02L91.7,4.982c.2.153-.212-.079-.14.028-.191-.085-.2-.088-.531-.266l.087-.028c-.425-.261-.058.076-.423-.09l.053-.055c-.567-.144-.864-.467-1.29-.555.219.108.129.161.133.141a10.2,10.2,0,0,1-1.21-.6c-.168.052-.21.071-.594-.015-.264-.1-.3-.123-.368-.212-.272-.052-.738-.281-.775-.213-.04-.082-.238-.065-.367-.156l-.041.021.045-.062c-.514.016-.763-.321-1.274-.327l.077.043-.191-.085c-.039.02.036.063.034.106-.3-.094-.621-.149-.931-.225l.2-.009a2.052,2.052,0,0,0-.546-.166c.349.2-.311-.072-.389-.006l.193.077c-.271-.073-.271-.073-.232-.138-.35-.109-.271.067-.585-.071l.236.044c.078-.026-.078-.122-.236-.149-.04,0-.157.014-.04.046-.276-.082-.707-.127-.825-.18-.157-.007-.116.053-.038.088-.591-.177-.273-.045-.868-.213l0,.042-.2-.079-.312.043.115-.037a3.277,3.277,0,0,0-.555-.092L80,1.708c-.558-.109-.661,0-1.187-.142-.038.007.043.034.084.048-.487-.142-.386.073-.876-.091.029.023-.028.044-.01.062l-.224-.06.011.083-.176-.139-.147.071-.085-.048c-.253.126-.591,0-.93.1l.063-.1c-.835-.272-1.928.05-2.94-.038l.02.082c-.141-.033-.281-.065-.421-.088-.222.076.137.064.068.11-.448-.023-.19-.113-.713-.111-.264.068.1.056.222.08a7.792,7.792,0,0,0-1.556.048c-.009-.011-.031-.023-.014-.029-.328-.006-.754.072-1.113.1.013.037.1.034.192.033a1.34,1.34,0,0,1-.415.033L70,1.77c-.273.032-.807.043-.857.135.029-.036.008-.1-.228-.058-.113.143-.65.039-1.019.158a1.941,1.941,0,0,0,.25,0,1.455,1.455,0,0,1-.537.016l.059.04-.889.094c-.106.148-.831.135-.753.215-.312.062.252-.1-.147-.045-.094.074-.361.056-.327.132h.044l-.275.056.189.039c-.24.037-.43,0-.455-.058-.215.1-.541.133-.626.227h.088c-.64.1-.977.482-1.5.477-.033.021-.023.04.052.017l-.382.11.108.034-.658.087.019.037c-.409.148-1.062.333-1.6.49l.086-.007c-.6.132-.543.233-.979.339a.1.1,0,0,0,.05,0l-.378.136.1.007c-.311.018-.758.4-.613.264a2.547,2.547,0,0,1-.521.059c-.408.161-.08.089-.317.224a5.842,5.842,0,0,0-.754.274l.024.035c-.188.069-.317.085-.574.2l.083-.016c-.45.109-.469.345-.869.328-.161.109-.5.235-.452.3-.54.187-.942.375-1.464.592-.02.161-.113.047-.384.268L53.58,6.9c-.709.373-1.44.947-2.208,1.374l.015.076-.191.02c-.808.5-1.821,1.187-2.456,1.594a4.093,4.093,0,0,0-.9.49l.04-.015a12.434,12.434,0,0,0-1.774,1.228c.055,0,.009.058.087.024-.19.041-.354.256-.482.353l.118-.154a.952.952,0,0,0-.468.416l-.312.148c-.013.019-.033.05-.029.062l-.07.007-.082.185a2.59,2.59,0,0,1-.607.309c-.006.045-.236.259-.035.122-.317.257-.618.538-.929.806l.125-.15c-.028-.071-.342.132-.466.281.23-.116.082.065.035.175-.153.078.07-.143-.024-.116a2.428,2.428,0,0,0-.606.474l.114-.062c-.233.169-.249.35-.465.532-.23.122-.332.289-.377.161-.288.228-.049.158-.128.248a1.482,1.482,0,0,0-.527.535c-.275,0-.681.721-.84.66l-.161.269c-.036-.023-.143-.05-.333.106-.138.19-.048.206-.07.284l-.217,0c-.853,1.034-2.185,2.19-3.139,3.315-.489.437-1.129.967-1.663,1.519l.075-.046-.517.562.349-.437a3.96,3.96,0,0,0-.36.287,18.243,18.243,0,0,1-2.12,2.117c-.612.329-.22.418-.779.763.05-.025.083-.021.131-.042-.551.426-.854.654-1.439,1.044.176.078-.345.294-.237.322l-.091-.016c-.088.134-.353.384-.281.389L29,27.254l.026.073c-.3.272-1.021.782-1.092,1.035-.855.554-2.095,1.571-3.139,2.315a4.381,4.381,0,0,0-.736.421l-.213.243a3.343,3.343,0,0,0-.788.418c.007.008.02.008.04,0a3.788,3.788,0,0,1-.771.411c-.28.175-.532.381-.4.4-.1-.1-.6.364-.6.364s-.907.561-2.406,1.3a31.453,31.453,0,0,1-5.955,2.225,24.1,24.1,0,0,1-7.141.78,15.883,15.883,0,0,1-5.016-.953c-.122-.1-.487-.223-.325-.274C.2,35.92.04,36.009,0,35.928c.4.044-.079-.207.321-.2l-.239-.073c-.039-.06.317.132.279.029l.04.145a.88.88,0,0,0,.4-.009c.175.089.259.292.723.3l-.122-.03c.365.072.239-.044.319-.05l-.082-.014.319-.013c-.241.006-.6-.173-.406-.127.44.043-.117.012.2.085.2.042.155-.038.153-.08l.362.064c0-.063-.241-.035-.083-.075l.447.134c.107-.141.489.143.717.02-.325-.076.036-.049-.011-.1l.8.09c.079-.016-.208-.066-.086-.048.156-.03.247.057.329.063.073-.036.6.04.586-.066.548-.048.225.149.738.092.069-.063-.4-.017-.177-.081L6.063,36a.37.37,0,0,0-.3-.088,9.146,9.146,0,0,0,1.779-.267,11.005,11.005,0,0,1,1.668-.254c.171-.094-.136-.035-.27-.07a9.152,9.152,0,0,0,2.042-.477l.025.057c1.037-.4,2.339-.634,3.495-1.107l-.128.085a2.793,2.793,0,0,0,.647-.126c.019-.04-.183-.072.165-.174-.063.047-.2.121-.146.134.96-.486,3.051-1.337,4.56-2.255a42.186,42.186,0,0,0,6.076-4.051c-.284.217-.072.244.12.048.423-.654,1.03-.769,1.5-1.39,1.1-.827,1.874-1.811,2.948-2.544l-.032-.07c.118-.155.191-.154.344-.286l-.017-.012c.331-.343.8-.693.974-.906l.069.047c.211-.19.063-.147.306-.315l-.034-.023.3-.181c-.123-.081.569-.568.687-.773a13.98,13.98,0,0,0,1.206-1.1,7.578,7.578,0,0,1,.8-.943c.622-.586,1.514-1.426,2.281-2.207l.05.082.211-.194c-.017-.012,0-.046-.035-.023.087-.229.5-.433.62-.639-.047.161-.136.148-.252.262-.139.194.085.1.282-.148l-.018-.011.189-.114c-.032-.07.086-.23.055-.3.7-.634,1.253-.981,1.955-1.66-.13.007.534-.455.3-.428.478-.348,0,.15.271.047.121-.11.277-.194.265-.252-.081.025.044-.152-.065-.074l.3-.25c.021-.033-.057.009-.1.031.649-.469,1.022-.991,1.625-1.39.073,0-.212.192-.139.2.627-.376.443-.47,1.017-.834l-.153.032a1.316,1.316,0,0,0,.559-.377c0-.1-.281.136-.44.213.191-.156.694-.527.59-.349a1.644,1.644,0,0,0,.41-.392c.017.014-.188.209-.026.137.3-.277.8-.645,1.187-.943-.016-.014-.006-.059-.046-.043.385-.14.247-.264.708-.554" transform="translate(84.762 10.238)"></path><path class="c" d="M.3.018.1.05C.1.032.093.012,0,0Z" transform="translate(155.374 10.325)"></path><path class="c" d="M.074.007A.468.468,0,0,1,0,.007C.047,0,.064,0,.074.007" transform="translate(146.395 12.132)"></path><path class="c" d="M.044.011C.2-.028.074.043.006.09,0,.075-.007.056.044.011" transform="translate(144.211 12.694)"></path><path class="c" d="M.049.039C.015.029-.005.017,0,0,.046.017.056.029.049.039" transform="translate(160.946 10.432)"></path><path class="c" d="M.059.011,0,0A.164.164,0,0,1,.059.011" transform="translate(175.176 13.688)"></path><path class="c" d="M.149.074A1.2,1.2,0,0,1,0,0,.566.566,0,0,1,.149.074" transform="translate(174.283 13.435)"></path><path class="c" d="M.155.019A.537.537,0,0,1,0,0,.385.385,0,0,1,.155.019" transform="translate(157.284 10.407)"></path><path class="c" d="M.192.086,0,.017,0,0Z" transform="translate(173.942 13.268)"></path><path class="c" d="M.239.1A2.458,2.458,0,0,0,0,0,.6.6,0,0,1,.239.1" transform="translate(175.236 13.7)"></path><path class="c" d="M.1.043.079.037C-.071-.028.025,0,.1.043" transform="translate(166.222 11.131)"></path><path class="c" d="M.076.048.049.042,0,0Z" transform="translate(173.278 12.842)"></path><path class="c" d="M.086.057A.417.417,0,0,1,0,0L.11.041A.036.036,0,0,0,.086.057" transform="translate(176.204 14.092)"></path><path class="c" d="M.017,0C.066.044.082.069.08.084.014.067-.024.044.017,0" transform="translate(169.329 11.707)"></path><path class="c" d="M0,0A.065.065,0,0,1,.012.042C0,.021,0,.009,0,0" transform="translate(169.013 2.971)"></path><path class="c" d="M0,0,.1.028C.035.018.009.01,0,0" transform="translate(160.143 1.494)"></path><path class="c" d="M.008.014C0,.008,0,.006,0,0L.348.157Z" transform="translate(174.076 4.869)"></path><path class="c" d="M0,.04.114,0A.675.675,0,0,1,0,.04" transform="translate(141.425 4.607)"></path><path class="c" d="M.154.017A.486.486,0,0,0,0,.011C.073,0,.131-.008.154.017" transform="translate(152.202 1.719)"></path><path class="c" d="M.162.045,0,.009C.015-.009.074,0,.162.045" transform="translate(176.854 5.499)"></path><path class="c" d="M.019.006A.057.057,0,0,1,0,.006C0,0,.007,0,.019.006" transform="translate(181.456 8.943)"></path><path class="c" d="M.115.108,0,0C.053.039.123.086.115.108" transform="translate(179.512 7.668)"></path><path class="c" d="M0,0,.054.053C.021.028-.006.007,0,0" transform="translate(179.458 7.615)"></path><path class="c" d="M.407.2A1.729,1.729,0,0,1,0,0Z" transform="translate(80.273 35.314)"></path><path class="c" d="M0,0,.04,0C.01.015,0,.013,0,0" transform="translate(126.569 13.44)"></path><path class="c" d="M.112.022,0,0A.474.474,0,0,1,.112.022" transform="translate(80.514 34.985)"></path><path class="c" d="M.431.249C.306.131-.023.045,0,0c.152.082.391.15.43.249" transform="translate(174.02 3.762)"></path><path class="c" d="M.082,0,0,.07.082,0" transform="translate(122.364 14.39)"></path><path class="c" d="M0,0,.13.026A.291.291,0,0,1,.083.041.392.392,0,0,0,0,0" transform="translate(80.625 35.007)"></path><path class="c" d="M0,.022l0,0L.039,0Z" transform="translate(113.219 25.993)"></path><path class="c" d="M0,.125.171,0A.563.563,0,0,1,0,.125" transform="translate(112.539 26.612)"></path><path class="c" d="M.23.118,0,0A1.549,1.549,0,0,1,.23.118" transform="translate(80.043 35.195)"></path><path class="c" d="M0,.044.089,0A.519.519,0,0,1,0,.044" transform="translate(103.802 32.892)"></path><path class="c" d="M0,.019.083,0C.092.012.087.02,0,.019" transform="translate(153.078 1.617)"></path><path class="c" d="M0,0H0Z" transform="translate(145.694 1.563)"></path><path class="c" d="M.4,0a.956.956,0,0,1-.4.04A1.064,1.064,0,0,1,.4,0" transform="translate(145.697 1.519)"></path><path class="c" d="M0,.018.043,0A.27.27,0,0,1,0,.018" transform="translate(144.889 1.794)"></path><path class="c" d="M0,0V.006L0,0Z" transform="translate(152.629 0.183)"></path><path class="c" d="M.1,0A.521.521,0,0,1,0,.039.39.39,0,0,1,.1,0" transform="translate(150.969 0.372)"></path><path class="c" d="M.006,0l0,0L0,0Z" transform="translate(141.132 2.897)"></path><path class="c" d="M48.077,9.622c1.217-.867,2.889-1.84,4.135-2.633a5.35,5.35,0,0,0,1.155-.521l-.03-.151.362-.158c.117-.117-.275.128-.057-.062l.175.008c0-.06.871-.512.24-.288L55.4,5.088c.3-.154.232.019.55-.179.049-.071-.134.034-.13-.026.961-.593,1.279-.336,2.2-.817l-.089.019c.179-.038.483-.182.5-.164-.062.188-.2,0-.457.215.076.1.388-.1.408-.009a2.234,2.234,0,0,1,.558-.216c.3-.219.8-.355,1.02-.55a2.56,2.56,0,0,0,.761-.131c.218-.191-.094-.064.24-.233l.082.047c.282-.114.23-.116.208-.144.306-.115.289,0,.657-.183l-.238.012a6.631,6.631,0,0,0,.8-.28c-.022-.036-.181.024-.293.078.181-.178.384-.09.5-.143-.023.042-.292.154-.135.172.19-.086.45-.052.566-.177l-.24,0a2.061,2.061,0,0,0,.717-.164c-.027,0-.02-.017-.035-.028a5.055,5.055,0,0,0,1.142-.358l-.09.006c.188-.029.306.007.4-.025-.246.11-.17.111-.174.183.307-.206.554-.01,1.087-.228-.019-.037-.166-.049-.307.035a1.079,1.079,0,0,0-.626-.119c.218-.03.471-.082.4-.116l.1.09.322-.092c.073.053-.226.183.081.147.341-.055.147-.159.212-.124.468-.079.216.057.65-.083a.524.524,0,0,0-.174.021c.308-.117.786-.16.849-.314a.2.2,0,0,0-.19-.017l.009.019c-.373-.015.3-.042.162-.135-.008.077.438-.043.637-.1l-.047.1c.725.092-.073-.16.6-.265.438-.024-.157.052.117.061a3.853,3.853,0,0,1,.809-.2c.112-.054.344-.143.349-.238.262-.017.779-.174.94-.1-.43.14-.458-.039-.952.178l.16.063c.352-.08.82-.083,1.061-.155-.048.025-.066.05-.032.066A7.6,7.6,0,0,0,72.212.411C72.267.32,71.979.374,71.767.4a3.588,3.588,0,0,1,.827-.134c.018-.073-.336.034-.4-.025L72.749.2l0-.015c.092.113.419-.05.761-.047A3.218,3.218,0,0,1,74.89.3q.176-.057.1-.1c-.193.063-.161.019-.231-.009.27,0,.585-.148.432-.189.432.015-.152.072.113.1l.588-.037c-.067.066-.274.089.032.122l.715-.013c-.049-.03.1-.094-.148-.09a1.022,1.022,0,0,1,.515.034c-.367.056.6.053.328.149L77.7.212c-.083,0-.093-.04-.216-.028.1-.094.3.027.427.036a4.039,4.039,0,0,0,.494-.05A.876.876,0,0,0,78.86.148c.172.026.011.062.06.1l.585.019c.034-.05.092-.192,0-.216.22.059.071.157.407.169-.186-.113.449-.052.179-.19a3.419,3.419,0,0,1,1.047.053c.18.1-.331.015-.319.1.846.116.874.328,1.493.373h-.162a2.085,2.085,0,0,1,.55.185c-.094-.116.473-.208,1.1-.1.045.058-.369.046-.279.14l.415.076c.032,0-.012-.027-.063-.048.367.1.716,0,.8.137L85.092.87,84.93.9a3.143,3.143,0,0,0,.539.191,2.023,2.023,0,0,0,.822.124c-.083.023-.286.072.042.168.033-.162.709.11.719.024.134.035.384.044.383.114l0-.1c0,.144.486.257.846.4-.03-.212.4.135.615.014.032.148.643.246.673.372.281.1.289-.024.375-.042l.115.093a9.362,9.362,0,0,1,1.02.238l.25.213.127-.012c.037.041.268.155.106.136l.156.056c-.034.124.2.121.492.3.079.01.072-.026.011-.069.154.062.114-.026.214-.031-.12-.014.467.439.03.322-.049.036.178.17.337.211l.137-.068.133.185a4.591,4.591,0,0,0,.547.172c-.187-.1-.337-.4.159-.165a4.8,4.8,0,0,1-.485-.337c.107.039.164.05.02-.062.379.208.1.123.482.316.021-.1.143-.083.5.046l-.283-.051a.123.123,0,0,0,.036.048c-.1-.035-.133-.033-.17-.007.077.035.391.325.481.3-.453-.038.618.429.33.4.03.048.294.178.345.147-.282-.227.29.017.27-.069.1.089-.281-.064-.141.055a1.436,1.436,0,0,0,.466.15l-.068-.059.309.115c.023.071-.319-.073-.067.093.08.018.332.184.344.145-.092-.13.045-.163-.175-.3.185.108.778.441.489.394l.225.117c-.162-.038-.591-.182-.151.073l.007-.02c.089.081.183.152.27.239l.158.035c-.017.019.018.07.13.136.046-.009.157.046.169,0,.322.2.269.231.3.282.178.117.257.141.2.037.253.145.687.409.876.486.3.26-.078-.028.071.159a5.191,5.191,0,0,1,1.6,1.072c-.23.019.127.121.132.306-.079-.123.549.275.138-.1l.258.221c.236.076-.4-.4-.055-.274.3.24.39.528.781.759-.045-.183.242.251.233.086a.893.893,0,0,0-.244-.249l.077.032c.659.521.1.258.382.6.373.347.359.2.416.18a1.557,1.557,0,0,1,.337.329c-.189-.256-.479-.328-.417-.181.252.053.576.491.645.618-.635-.38-.382-.327-.988-.668-.044-.092.042-.168-.3-.4.156.212-.053.037-.119,0,.1,0-.2-.208-.28-.3-.123-.028.1.266-.245.034l.035-.167c-.142-.082-.017.129-.264-.11.1.176-.121.063.229.367-.517-.237-.624-.576-.932-.886.029.035.021.054.05.089A1.454,1.454,0,0,0,99.9,7.7c-.249-.141.139.19.052.183-.117-.1-.244-.184-.369-.273a.027.027,0,0,0-.017,0c-.086-.086-.174-.163-.23-.155a2.615,2.615,0,0,1,.15.274l-.333-.36c.014.071-.376-.153-.117.071l-.572-.421-.107.052c-.129-.112-.121-.131.052-.026-.2-.13-.812-.729-.81-.491a13.552,13.552,0,0,0-1.171-.831c.407.331-.582-.178-.121.122-.3-.113-.309-.242-.523-.378-.23-.074-.185.066.021.22l-.242-.184,0,.021-.2-.176c-.27-.083-.1.064-.358-.058l-.013-.112L94.8,5.139c.083,0-.056-.1-.243-.194l0,.02-.221-.123c.2.156-.216-.081-.142.027-.2-.088-.2-.091-.545-.273l.088-.027c-.437-.267-.058.076-.432-.1l.052-.054c-.58-.15-.9-.454-1.329-.557.225.112.135.164.138.144-.341-.162-.907-.4-1.249-.6-.17.051-.213.069-.606-.019-.271-.1-.308-.125-.379-.215-.276-.061-.759-.282-.8-.207-.045-.076-.246-.06-.38-.153l-.041.02.045-.062c-.525.016-.782-.334-1.308-.33l.08.04-.2-.078c-.04.022.039.061.038.1l-.958-.22.2-.007a2.118,2.118,0,0,0-.559-.17c.358.2-.318-.077-.4-.006l.2.076c-.278-.077-.281-.065-.242-.135-.362-.1-.28.086-.6-.055l.241.043c.081-.027-.082-.118-.244-.148-.04,0-.16.013-.039.046-.284-.083-.726-.131-.848-.183-.16-.009-.117.052-.036.087-.608-.178-.283-.034-.9-.191l0,.042-.208-.079-.317.042.116-.037a3.435,3.435,0,0,0-.57-.094L82.3,1.6c-.573-.123-.681.026-1.222-.118-.039.008.046.035.088.05-.5-.145-.4.071-.9-.094.03.023-.027.043-.009.062l-.231-.061.013.083-.183-.131-.15.078-.088-.044c-.258.146-.606.011-.951.112l.062-.1c-.859-.261-1.976.081-3.015.017l.021.081L75.3,1.452c-.226.076.143.064.072.109-.461-.022-.2-.112-.733-.109-.27.068.1.055.229.079a7.39,7.39,0,0,0-1.595.086c-.009-.011-.032-.022-.015-.029a8.4,8.4,0,0,0-1.14.117c.014.036.1.029.2.024a1.4,1.4,0,0,1-.424.052l.147.05c-.278.053-.827.066-.878.157.029-.037.007-.1-.235-.058-.116.136-.667.05-1.041.192a2.221,2.221,0,0,0,.255-.009,1.375,1.375,0,0,1-.548.036l.061.04-.914.1c-.107.15-.846.175-.765.249-.317.078.255-.116-.15-.037-.1.076-.371.058-.335.134h.046l-.283.058.2.037c-.246.039-.443,0-.47-.054a3.009,3.009,0,0,0-.635.252l.089,0c-.647.148-1,.494-1.531.515-.034.022-.023.04.053.015l-.387.129.111.028-.671.116.021.036L62.4,4.3l.087-.011c-.611.153-.554.241-1,.356a.125.125,0,0,0,.05,0l-.382.153.1,0c-.315.033-.764.435-.617.294a2.267,2.267,0,0,1-.535.07c-.418.166-.082.09-.325.227a6.051,6.051,0,0,0-.762.312l.025.034c-.19.078-.319.1-.583.216l.085-.017c-.464.113-.481.348-.886.352-.161.117-.507.26-.454.325-.547.21-.965.389-1.487.643-.017.163-.114.052-.385.287l-.013-.076c-.734.371-1.444,1.023-2.239,1.45L53.092,9l-.194.029c-.807.544-1.843,1.255-2.473,1.706a3.808,3.808,0,0,0-.908.523l.04-.017a13.941,13.941,0,0,0-1.784,1.311c.056-.006.01.058.089.02-.192.05-.355.276-.482.38l.117-.162a1.071,1.071,0,0,0-.472.438l-.316.158c-.013.02-.033.051-.029.063l-.071.01-.08.192a2.8,2.8,0,0,1-.613.338c0,.046-.236.272-.033.124l-.935.851.125-.155c-.029-.07-.346.147-.472.3.234-.126.083.061.038.176-.153.086.068-.149-.025-.117a2.748,2.748,0,0,0-.613.5l.116-.066c-.236.179-.251.362-.47.552-.231.134-.335.307-.38.179-.293.239-.05.161-.13.253a1.565,1.565,0,0,0-.535.557c-.277.009-.69.751-.852.693l-.164.277c-.036-.022-.145-.048-.338.117-.139.2-.049.209-.071.289l-.221,0c-.869,1.069-2.232,2.266-3.218,3.419-.5.449-1.164.992-1.717,1.555l.077-.047-.54.573.365-.445a4.063,4.063,0,0,0-.373.292,17.74,17.74,0,0,1-2.216,2.143c-.63.331-.234.426-.82.766.053-.025.085-.02.136-.041a17.827,17.827,0,0,1-1.507,1.036c.174.082-.361.3-.253.324l-.091-.017c-.093.136-.375.385-.3.39l-.3.127.023.074c-.324.266-1.07.777-1.165,1.02-.892.554-2.235,1.509-3.333,2.231a4.061,4.061,0,0,0-.78.39l-.23.241a3.632,3.632,0,0,0-.836.378c.006.008.019.009.04,0a3.478,3.478,0,0,1-.811.382c-.3.159-.573.351-.445.376-.094-.115-.636.343-.636.343s-.97.512-2.557,1.169a28.751,28.751,0,0,1-6.3,1.775,23.186,23.186,0,0,1-7.379.029,17.924,17.924,0,0,1-5-1.492c-.116-.109-.477-.269-.308-.3-.28-.117-.45-.042-.484-.127.406.082-.063-.213.345-.174l-.238-.1c-.034-.064.314.161.282.055l.028.148a.926.926,0,0,0,.4.03c.17.107.239.316.711.37l-.122-.044c.365.109.248-.02.33-.019l-.082-.02.326.019c-.246-.019-.6-.232-.4-.167.445.083-.121,0,.2.1.2.062.162-.021.164-.063l.363.1c0-.063-.243-.059-.079-.083l.443.181c.122-.131.485.194.73.1-.324-.11.042-.045,0-.106l.813.178c.081-.006-.206-.089-.083-.056.162-.013.246.083.329.1.078-.026.611.108.6,0,.565.017.215.168.743.182.076-.051-.411-.071-.172-.1l.536.092a.387.387,0,0,0-.3-.126c1.469.1,2.261-.2,3.572-.13.184-.074-.134-.05-.266-.1a9.011,9.011,0,0,0,2.129-.266l.02.06c1.1-.284,2.443-.422,3.664-.791l-.137.079a3.665,3.665,0,0,0,.669-.081c.022-.039-.18-.087.183-.159-.067.041-.212.1-.159.12a50.46,50.46,0,0,0,4.82-1.959,38.82,38.82,0,0,0,6.441-3.794c-.3.206-.088.241.118.053.459-.654,1.089-.734,1.589-1.358,1.165-.8,1.97-1.793,3.089-2.51l-.029-.072c.123-.156.2-.154.354-.287l-.017-.012c.345-.346.831-.688,1.012-.908l.069.048c.217-.193.067-.149.317-.317l-.034-.024.307-.181c-.12-.079.589-.574.714-.781A13.64,13.64,0,0,0,35.544,21.2a8.087,8.087,0,0,1,.824-.959c.638-.6,1.546-1.462,2.328-2.264l.05.082.213-.2c-.017-.012,0-.047-.035-.022.088-.234.507-.448.63-.659-.048.164-.138.152-.256.271-.141.2.086.1.286-.155l-.019-.011.193-.118c-.033-.07.087-.234.056-.3.708-.657,1.266-1.023,1.974-1.728-.13.011.538-.476.3-.442.48-.367,0,.15.274.038.122-.115.279-.2.266-.263-.082.028.044-.154-.066-.072l.3-.262c.021-.034-.057.011-.1.034.655-.493,1.025-1.035,1.631-1.46.074,0-.211.2-.137.207.626-.406.44-.493,1.015-.884l-.154.039a1.433,1.433,0,0,0,.563-.4c0-.107-.286.144-.446.23.188-.17.706-.549.6-.37a1.671,1.671,0,0,0,.409-.413c.017.013-.187.219-.024.139a12.971,12.971,0,0,1,1.194-1c-.016-.014-.006-.059-.048-.042.391-.154.246-.277.709-.59" transform="translate(79.888 0)"></path><path class="c" d="M.311.017.109.05C.107.031.1.011,0,0Z" transform="translate(152.525 0.134)"></path><path class="c" d="M.076.006A.663.663,0,0,1,0,.007C.048,0,.066,0,.076.006" transform="translate(143.359 2.184)"></path><path class="c" d="M.044.012C.208-.028.075.043.005.09,0,.077-.007.056.044.012" transform="translate(141.132 2.806)"></path><path class="c" d="M.051.039C.016.029-.006.017,0,0c.047.017.056.029.05.039" transform="translate(158.242 0.13)"></path><path class="c" d="M.06.012,0,0A.2.2,0,0,1,.06.012" transform="translate(172.874 3.302)"></path><path class="c" d="M.152.076A1.338,1.338,0,0,1,0,0,.6.6,0,0,1,.152.076" transform="translate(171.96 3.041)"></path><path class="c" d="M.159.019A.56.56,0,0,1,0,0,.405.405,0,0,1,.159.019" transform="translate(154.486 0.175)"></path><path class="c" d="M.2.088,0,.017,0,0Z" transform="translate(171.609 2.871)"></path><path class="c" d="M.249.091,0,0A.7.7,0,0,1,.249.091" transform="translate(172.934 3.315)"></path><path class="c" d="M.1.038l-.021,0C-.074-.025.025,0,.1.038" transform="translate(163.665 0.769)"></path><path class="c" d="M.078.049.05.042,0,0Z" transform="translate(170.919 2.452)"></path><path class="c" d="M.089.058A.444.444,0,0,1,0,0L.113.043A.032.032,0,0,0,.089.058" transform="translate(173.932 3.703)"></path><path class="c" d="M.018,0c.05.044.067.07.065.085C.016.068-.025.044.018,0" transform="translate(166.857 1.327)"></path><path class="d" d="M86.539,46.355C88.74,23.124,71.193,2.46,47.347.2S2.387,14.944.186,38.174,15.532,82.068,39.378,84.327,84.339,69.585,86.539,46.355Z" transform="translate(0.484 19.415)"></path><path class="e" d="M75.487,40.434C77.406,20.171,62.1,2.146,41.3.176S2.082,13.035.163,33.3,13.549,71.586,34.348,73.557,73.567,60.7,75.487,40.434Z" transform="translate(6.023 24.813)"></path><rect class="f" width="52.402" height="2.304" transform="matrix(0.849, 0.528, -0.528, 0.849, 17.383, 41.762)"></rect><path class="f" d="M16.17,5.306,8.746.7A4.616,4.616,0,0,0,2.39,2.18L.695,4.91a4.613,4.613,0,0,0,1.487,6.353l7.423,4.611a4.615,4.615,0,0,0,5.571-.532L3.308,7.97l.847-1.362,12.007,7.457,1.331-2.143L5.485,4.465,6.332,3.1l11.85,7.36A4.619,4.619,0,0,0,16.17,5.306" transform="translate(55.686 64.376)"></path><rect class="f" width="2.304" height="52.402" transform="matrix(0.849, 0.528, -0.528, 0.849, 58.167, 32.605)"></rect><path class="f" d="M12.42.937h0a6.222,6.222,0,0,0-8.567,2L.937,7.634A6.221,6.221,0,0,0,11.506,14.2L14.422,9.5a6.221,6.221,0,0,0-2-8.567" transform="translate(21.546 72.73)"></path><path class="f" d="M4.663,1.809A2.364,2.364,0,1,0,2.921,4.663,2.364,2.364,0,0,0,4.663,1.809" transform="translate(41.441 61.783)"></path><path class="f" d="M4.663,1.809A2.364,2.364,0,1,0,2.921,4.663,2.364,2.364,0,0,0,4.663,1.809" transform="translate(39.216 52.569)"></path><path class="f" d="M10.882,4.223a5.517,5.517,0,1,0-4.068,6.659,5.518,5.518,0,0,0,4.068-6.659" transform="translate(37.174 54.022)"></path><path class="f" d="M4.663,1.809A2.364,2.364,0,1,0,2.921,4.663,2.364,2.364,0,0,0,4.663,1.809" transform="translate(35.831 58.263)"></path><path class="f" d="M4.663,1.809A2.364,2.364,0,1,0,2.921,4.663,2.364,2.364,0,0,0,4.663,1.809" transform="translate(44.826 56.089)"></path><path class="f" d="M3.567,7.11a5.228,5.228,0,0,0,.32-.88c.34-1.106.653-2.219.968-3.332q.383-1.354.758-2.709C5.631.125,5.648.062,5.665,0Q4.977.633,4.291,1.271,3,2.468,1.721,3.676q-.415.393-.825.791a2.907,2.907,0,0,0-.729.856A1.934,1.934,0,0,0,.925,7.76,2.035,2.035,0,0,0,3.045,7.7a1.546,1.546,0,0,0,.521-.593" transform="translate(38.783 67.674)"></path><path class="f" d="M7.111,2.1a5.27,5.27,0,0,0-.881-.32C5.124,1.438,4.01,1.124,2.9.81Q1.544.427.188.051L0,0Q.635.687,1.271,1.374q1.2,1.29,2.406,2.57c.262.277.525.552.792.825a2.9,2.9,0,0,0,.856.729A1.933,1.933,0,0,0,7.76,4.739,2.035,2.035,0,0,0,7.7,2.619,1.55,1.55,0,0,0,7.111,2.1" transform="translate(44.853 67.576)"></path><path class="f" d="M3.768,6.511a5.157,5.157,0,0,0-.4-.849C2.83,4.639,2.265,3.631,1.7,2.621Q1.014,1.394.321.17C.289.113.256.056.224,0Q.186.935.151,1.87C.107,3.042.066,4.215.035,5.388.026,5.768.016,6.15.011,6.53A2.924,2.924,0,0,0,.1,7.652,1.936,1.936,0,0,0,2.359,8.839,2.035,2.035,0,0,0,3.818,7.3a1.532,1.532,0,0,0-.05-.788" transform="translate(44.429 67.625)"></path><path class="f" d="M2.1.921a5.229,5.229,0,0,0-.32.88C1.438,2.907,1.124,4.021.81,5.133Q.427,6.487.051,7.843c-.017.063-.035.126-.051.188Q.687,7.4,1.374,6.76q1.29-1.2,2.57-2.406.415-.393.825-.791A2.907,2.907,0,0,0,5.5,2.707,1.934,1.934,0,0,0,4.739.271a2.035,2.035,0,0,0-2.12.057A1.546,1.546,0,0,0,2.1.921" transform="translate(40.938 43.376)"></path><path class="f" d="M.921,3.567a5.228,5.228,0,0,0,.88.32c1.106.34,2.219.653,3.332.968q1.354.383,2.709.758l.188.051Q7.4,4.977,6.76,4.291,5.563,3,4.355,1.721,3.961,1.306,3.563.9A2.907,2.907,0,0,0,2.707.167,1.934,1.934,0,0,0,.271.925a2.035,2.035,0,0,0,.057,2.12,1.546,1.546,0,0,0,.593.521" transform="translate(32.503 45.841)"></path><path class="f" d="M.081,2.381a5.157,5.157,0,0,0,.4.849c.541,1.022,1.106,2.031,1.671,3.04Q2.834,7.5,3.528,8.722c.032.057.065.114.1.17q.038-.935.073-1.87c.044-1.173.084-2.345.116-3.518.01-.381.019-.762.024-1.143A2.924,2.924,0,0,0,3.748,1.24,1.936,1.936,0,0,0,1.489.053,2.035,2.035,0,0,0,.03,1.593a1.532,1.532,0,0,0,.05.788" transform="translate(37.109 42.565)"></path><path class="f" d="M7.11,2.1a5.229,5.229,0,0,0-.88-.32C5.124,1.438,4.01,1.124,2.9.81Q1.544.427.188.051L0,0Q.633.687,1.271,1.374q1.2,1.29,2.406,2.57.393.415.791.825a2.907,2.907,0,0,0,.856.729A1.934,1.934,0,0,0,7.76,4.739,2.035,2.035,0,0,0,7.7,2.619,1.546,1.546,0,0,0,7.11,2.1" transform="translate(50.91 57.766)"></path><path class="f" d="M2.1.921a5.229,5.229,0,0,0-.32.88C1.438,2.907,1.124,4.021.81,5.133Q.427,6.487.051,7.843c-.017.063-.035.126-.051.188Q.687,7.4,1.374,6.76q1.29-1.2,2.57-2.406.415-.393.825-.791A2.907,2.907,0,0,0,5.5,2.707,1.934,1.934,0,0,0,4.739.271a2.035,2.035,0,0,0-2.12.057A1.546,1.546,0,0,0,2.1.921" transform="translate(50.812 49.33)"></path><path class="f" d="M6.511.081a5.157,5.157,0,0,0-.849.4c-1.022.541-2.031,1.106-3.04,1.671Q1.394,2.834.17,3.528l-.17.1L1.87,3.7c1.173.044,2.345.084,3.518.116.381.01.762.019,1.143.024a2.924,2.924,0,0,0,1.121-.089A1.936,1.936,0,0,0,8.839,1.489,2.035,2.035,0,0,0,7.3.03a1.532,1.532,0,0,0-.788.05" transform="translate(50.861 53.936)"></path><path class="f" d="M.921,3.567a5.229,5.229,0,0,0,.88.32c1.106.34,2.219.653,3.332.968q1.354.383,2.709.758l.188.051Q7.4,4.977,6.76,4.291,5.563,3,4.355,1.721,3.961,1.306,3.563.9A2.907,2.907,0,0,0,2.707.167,1.934,1.934,0,0,0,.271.925a2.035,2.035,0,0,0,.057,2.12,1.546,1.546,0,0,0,.593.521" transform="translate(26.612 55.61)"></path><path class="f" d="M3.567,7.11a5.26,5.26,0,0,0,.32-.88c.34-1.106.653-2.219.968-3.332q.383-1.354.758-2.709C5.631.125,5.648.062,5.665,0Q4.977.633,4.291,1.27,3,2.468,1.721,3.676q-.415.392-.825.791a2.907,2.907,0,0,0-.729.856A1.934,1.934,0,0,0,.925,7.76,2.035,2.035,0,0,0,3.045,7.7a1.543,1.543,0,0,0,.521-.592" transform="translate(29.076 61.681)"></path><path class="f" d="M2.381,3.768a5.157,5.157,0,0,0,.849-.4C4.253,2.83,5.261,2.265,6.271,1.7Q7.5,1.014,8.722.321l.17-.1L7.022.151C5.85.107,4.677.066,3.5.035,3.124.026,2.742.016,2.362.011A2.924,2.924,0,0,0,1.24.1,1.936,1.936,0,0,0,.053,2.359a2.035,2.035,0,0,0,1.54,1.459,1.532,1.532,0,0,0,.788-.05" transform="translate(25.801 61.256)"></path><path class="f" d="M3.567,7.11a5.228,5.228,0,0,0,.32-.88c.34-1.106.653-2.219.968-3.332q.383-1.354.758-2.709C5.631.125,5.648.062,5.665,0Q4.977.633,4.291,1.271,3,2.468,1.721,3.676q-.415.393-.825.791a2.907,2.907,0,0,0-.729.856A1.934,1.934,0,0,0,.925,7.76,2.035,2.035,0,0,0,3.045,7.7a1.546,1.546,0,0,0,.521-.593" transform="translate(38.783 67.674)"></path><path class="f" d="M7.111,2.1a5.27,5.27,0,0,0-.881-.32C5.124,1.438,4.01,1.124,2.9.81Q1.544.427.188.051L0,0Q.635.687,1.271,1.374q1.2,1.29,2.406,2.57c.262.277.525.552.792.825a2.9,2.9,0,0,0,.856.729A1.933,1.933,0,0,0,7.76,4.739,2.035,2.035,0,0,0,7.7,2.619,1.55,1.55,0,0,0,7.111,2.1" transform="translate(44.853 67.576)"></path><path class="f" d="M3.768,6.511a5.157,5.157,0,0,0-.4-.849C2.83,4.639,2.265,3.631,1.7,2.621Q1.014,1.394.321.17C.289.113.256.056.224,0Q.186.935.151,1.87C.107,3.042.066,4.215.035,5.388.026,5.768.016,6.15.011,6.53A2.924,2.924,0,0,0,.1,7.652,1.936,1.936,0,0,0,2.359,8.839,2.035,2.035,0,0,0,3.818,7.3a1.532,1.532,0,0,0-.05-.788" transform="translate(44.429 67.625)"></path><path class="f" d="M2.1.921a5.229,5.229,0,0,0-.32.88C1.438,2.907,1.124,4.021.81,5.133Q.427,6.487.051,7.843c-.017.063-.035.126-.051.188Q.687,7.4,1.374,6.76q1.29-1.2,2.57-2.406.415-.393.825-.791A2.907,2.907,0,0,0,5.5,2.707,1.934,1.934,0,0,0,4.739.271a2.035,2.035,0,0,0-2.12.057A1.546,1.546,0,0,0,2.1.921" transform="translate(40.938 43.376)"></path><path class="f" d="M.921,3.567a5.228,5.228,0,0,0,.88.32c1.106.34,2.219.653,3.332.968q1.354.383,2.709.758l.188.051Q7.4,4.977,6.76,4.291,5.563,3,4.355,1.721,3.961,1.306,3.563.9A2.907,2.907,0,0,0,2.707.167,1.934,1.934,0,0,0,.271.925a2.035,2.035,0,0,0,.057,2.12,1.546,1.546,0,0,0,.593.521" transform="translate(32.503 45.841)"></path><path class="f" d="M.081,2.381a5.157,5.157,0,0,0,.4.849c.541,1.022,1.106,2.031,1.671,3.04Q2.834,7.5,3.528,8.722c.032.057.065.114.1.17q.038-.935.073-1.87c.044-1.173.084-2.345.116-3.518.01-.381.019-.762.024-1.143A2.924,2.924,0,0,0,3.748,1.24,1.936,1.936,0,0,0,1.489.053,2.035,2.035,0,0,0,.03,1.593a1.532,1.532,0,0,0,.05.788" transform="translate(37.109 42.565)"></path><path class="f" d="M7.11,2.1a5.229,5.229,0,0,0-.88-.32C5.124,1.438,4.01,1.124,2.9.81Q1.544.427.188.051L0,0Q.633.687,1.271,1.374q1.2,1.29,2.406,2.57.393.415.791.825a2.907,2.907,0,0,0,.856.729A1.934,1.934,0,0,0,7.76,4.739,2.035,2.035,0,0,0,7.7,2.619,1.546,1.546,0,0,0,7.11,2.1" transform="translate(50.91 57.766)"></path><path class="f" d="M2.1.921a5.229,5.229,0,0,0-.32.88C1.438,2.907,1.124,4.021.81,5.133Q.427,6.487.051,7.843c-.017.063-.035.126-.051.188Q.687,7.4,1.374,6.76q1.29-1.2,2.57-2.406.415-.393.825-.791A2.907,2.907,0,0,0,5.5,2.707,1.934,1.934,0,0,0,4.739.271a2.035,2.035,0,0,0-2.12.057A1.546,1.546,0,0,0,2.1.921" transform="translate(50.812 49.33)"></path><path class="f" d="M6.511.081a5.157,5.157,0,0,0-.849.4c-1.022.541-2.031,1.106-3.04,1.671Q1.394,2.834.17,3.528l-.17.1L1.87,3.7c1.173.044,2.345.084,3.518.116.381.01.762.019,1.143.024a2.924,2.924,0,0,0,1.121-.089A1.936,1.936,0,0,0,8.839,1.489,2.035,2.035,0,0,0,7.3.03a1.532,1.532,0,0,0-.788.05" transform="translate(50.861 53.936)"></path><path class="f" d="M.921,3.567a5.229,5.229,0,0,0,.88.32c1.106.34,2.219.653,3.332.968q1.354.383,2.709.758l.188.051Q7.4,4.977,6.76,4.291,5.563,3,4.355,1.721,3.961,1.306,3.563.9A2.907,2.907,0,0,0,2.707.167,1.934,1.934,0,0,0,.271.925a2.035,2.035,0,0,0,.057,2.12,1.546,1.546,0,0,0,.593.521" transform="translate(26.612 55.61)"></path><path class="f" d="M3.567,7.11a5.26,5.26,0,0,0,.32-.88c.34-1.106.653-2.219.968-3.332q.383-1.354.758-2.709C5.631.125,5.648.062,5.665,0Q4.977.633,4.291,1.27,3,2.468,1.721,3.676q-.415.392-.825.791a2.907,2.907,0,0,0-.729.856A1.934,1.934,0,0,0,.925,7.76,2.035,2.035,0,0,0,3.045,7.7a1.543,1.543,0,0,0,.521-.592" transform="translate(29.076 61.681)"></path><path class="f" d="M2.381,3.768a5.157,5.157,0,0,0,.849-.4C4.253,2.83,5.261,2.265,6.271,1.7Q7.5,1.014,8.722.321l.17-.1L7.022.151C5.85.107,4.677.066,3.5.035,3.124.026,2.742.016,2.362.011A2.924,2.924,0,0,0,1.24.1,1.936,1.936,0,0,0,.053,2.359a2.035,2.035,0,0,0,1.54,1.459,1.532,1.532,0,0,0,.788-.05" transform="translate(25.801 61.256)"></path><path class="g" d="M4.153,1.612A2.106,2.106,0,1,0,2.6,4.153,2.1,2.1,0,0,0,4.153,1.612" transform="translate(40.587 57.434)"></path></g></g></svg> 