<svg width="293" height="327" viewBox="0 0 293 327" fill="none" xmlns="http://www.w3.org/2000/svg">
<path d="M282.71 165.913L206.83 209.723L130.95 165.913L206.83 122.103L282.71 165.913Z" stroke="#252525" stroke-width="10" stroke-linecap="round" stroke-linejoin="round"/>
<path d="M130.92 165.953L206.8 209.763V297.373L130.92 253.573V165.953Z" stroke="#252525" stroke-width="10" stroke-linecap="round" stroke-linejoin="round"/>
<path d="M206.85 297.383V209.763L282.73 165.953V253.573L206.85 297.383Z" stroke="#252525" stroke-width="10" stroke-linecap="round" stroke-linejoin="round"/>
<path d="M130.73 171.683L97.9097 114.013L141.72 38.1333L185.53 114.013L167.73 144.683" stroke="#252525" stroke-width="10" stroke-linecap="round" stroke-linejoin="round"/>
<path d="M127.73 189.923H54.0698L10.2598 114.043H97.8796L128.73 167.683" stroke="#252525" stroke-width="10" stroke-linecap="round" stroke-linejoin="round"/>
<path d="M54.0698 38.1033H141.69L97.8796 113.983H10.2598L54.0698 38.1033Z" stroke="#252525" stroke-width="10" stroke-linecap="round" stroke-linejoin="round"/>
<path d="M275.45 9.74341L9.4502 307.743" stroke="white" stroke-width="6" stroke-miterlimit="10" stroke-linecap="round"/>
<path d="M289 4.74341L4 322.743" stroke="#252525" stroke-width="8" stroke-miterlimit="10" stroke-linecap="round"/>
</svg>
