<svg width="302" height="314" viewBox="0 0 302 314" fill="none" xmlns="http://www.w3.org/2000/svg">
<rect x="36" y="41.4912" width="257" height="259" rx="128.5" fill="#ABCAAE"/>
<path d="M111.13 22.602C88.1049 28.5712 62.1323 46.6777 45.7382 67.7689C35.9755 80.7021 24.1865 105.773 20.3182 122.884C15.7131 142.583 17.3709 180.984 23.8181 200.086C32.844 227.743 56.4918 256.091 79.9031 270.164C106.2 285.971 126.551 281.637 126.551 285.971C178.361 290.913 82.6471 264.236 73.0431 253.578C63.1753 242.627 35.7912 211.158 29.7125 185.888C26.2127 170.965 26.2127 141.588 29.7125 125.272C39.2911 81.1 73.3687 44.0911 114.814 32.5507C128.998 28.5713 155.523 28.5713 169.707 32.3517C190.338 38.122 210.608 46.4928 226.081 61.8137C239.897 75.1449 246.296 69.5168 230.822 53.002C214.06 35.0945 194.574 28.1732 173.391 22.403C159.76 18.6226 125.682 18.8215 111.13 22.602Z" fill="url(#paint0_linear_136_692)"/>
<path d="M188.123 284.025C210.963 277.269 236.394 258.281 252.164 236.639C261.544 223.377 272.595 197.915 275.962 180.679C279.99 160.833 273.511 122.879 266.51 104.008C256.681 76.6742 231.844 51.4628 209.191 36.0162C202.797 31.6568 166.661 22.1873 165.924 22.2126C113.996 19.0487 206.814 39.3717 214.221 46.8815C229.435 62.307 254.994 94.6438 261.808 119.692C265.741 134.488 269.525 162.187 266.503 178.615C258.219 223.093 225.239 261.252 184.151 274.208C170.091 278.672 143.579 279.581 129.292 276.289C108.503 271.229 83.311 263.063 67.3986 248.28C53.2011 235.43 56.3453 239.888 72.2927 255.864C89.5694 273.188 104.559 281.318 125.9 286.359C139.635 289.67 173.689 288.303 188.123 284.025Z" fill="url(#paint1_linear_136_692)"/>
<path d="M211.219 158.03L177.672 178.833L144.125 158.03L177.672 137.228L211.219 158.03Z" stroke="#252525" stroke-width="10" stroke-linecap="round" stroke-linejoin="round"/>
<path d="M144.112 158.049L177.659 178.852V220.453L144.112 199.655V158.049Z" stroke="#252525" stroke-width="10" stroke-linecap="round" stroke-linejoin="round"/>
<path d="M177.681 220.458V178.852L211.228 158.049V199.655L177.681 220.458Z" stroke="#252525" stroke-width="10" stroke-linecap="round" stroke-linejoin="round"/>
<path d="M144.028 160.77L129.518 133.386L148.887 97.355L168.255 133.386L160.386 147.949" stroke="#252525" stroke-width="10" stroke-linecap="round" stroke-linejoin="round"/>
<path d="M142.702 169.431H110.136L90.7676 133.4H129.505L143.144 158.871" stroke="#252525" stroke-width="10" stroke-linecap="round" stroke-linejoin="round"/>
<path d="M110.136 97.3408H148.873L129.505 133.372H90.7676L110.136 97.3408Z" stroke="#252525" stroke-width="10" stroke-linecap="round" stroke-linejoin="round"/>
<path d="M208.01 83.8745L90.4097 225.378" stroke="black" stroke-width="6" stroke-miterlimit="10" stroke-linecap="round"/>
<path d="M214 81.5L88 232.5" stroke="#252525" stroke-width="8" stroke-miterlimit="10" stroke-linecap="round"/>
<defs>
<linearGradient id="paint0_linear_136_692" x1="-165.317" y1="-38.5331" x2="228.331" y2="26.3564" gradientUnits="userSpaceOnUse">
<stop offset="0.288243" stop-color="#A0522D" stop-opacity="0"/>
<stop offset="0.723095" stop-color="#F4A460"/>
</linearGradient>
<linearGradient id="paint1_linear_136_692" x1="464.392" y1="335.528" x2="71.2734" y2="282.628" gradientUnits="userSpaceOnUse">
<stop offset="0.288243" stop-color="#A0522D" stop-opacity="0"/>
<stop offset="0.723095" stop-color="#F4A460"/>
</linearGradient>
</defs>
</svg>
