<svg width="40" height="40" viewBox="0 0 40 40" fill="none" xmlns="http://www.w3.org/2000/svg">
<g clip-path="url(#clip0_42_515)">
<path d="M50 0H-10V40H50V0Z" fill="#B22234"/>
<path d="M-10 4.61536H50.0586H-10ZM50.0586 10.7692H-10H50.0586ZM-10 16.9231H50.0586H-10ZM50.0586 23.0769H-10H50.0586ZM-10 29.2307H50.0586H-10ZM50.0586 35.3846H-10H50.0586Z" fill="black"/>
<path d="M-10 4.61536H50.0586M50.0586 10.7692H-10M-10 16.9231H50.0586M50.0586 23.0769H-10M-10 29.2307H50.0586M50.0586 35.3846H-10" stroke="white" stroke-width="2.73525"/>
<path d="M20.4 0H-10V21.7093H20.4V0Z" fill="#3C3B6E"/>
<path d="M0.135192 3.07758L0.85862 5.30406L-1.03534 3.92802H1.30572L-0.588236 5.30406L0.135192 3.07758Z" fill="white"/>
<path d="M0.135375 7.38522L0.858803 9.61171L-1.03516 8.23566H1.30591L-0.588053 9.61171L0.135375 7.38522Z" fill="white"/>
<path d="M0.135375 11.6928L0.858803 13.9193L-1.03516 12.5432H1.30591L-0.588053 13.9193L0.135375 11.6928Z" fill="white"/>
<path d="M0.135375 16.0005L0.858803 18.227L-1.03516 16.851H1.30591L-0.588053 18.227L0.135375 16.0005Z" fill="white"/>
<path d="M2.66644 0.923981L3.38987 3.15046L1.49591 1.77442H3.83697L1.94301 3.15046L2.66644 0.923981Z" fill="white"/>
<path d="M2.66644 5.23172L3.38987 7.4582L1.49591 6.08216H3.83697L1.94301 7.4582L2.66644 5.23172Z" fill="white"/>
<path d="M2.66644 9.53925L3.38987 11.7657L1.49591 10.3897H3.83697L1.94301 11.7657L2.66644 9.53925Z" fill="white"/>
<path d="M2.66644 13.847L3.38987 16.0735L1.49591 14.6975H3.83697L1.94301 16.0735L2.66644 13.847Z" fill="white"/>
<path d="M2.66644 18.1544L3.38987 20.3809L1.49591 19.0049H3.83697L1.94301 20.3809L2.66644 18.1544Z" fill="white"/>
<path d="M5.19965 3.0773L5.92307 5.30378L4.02911 3.92774H6.37018L4.47622 5.30378L5.19965 3.0773Z" fill="white"/>
<path d="M5.19965 7.38504L5.92307 9.61152L4.02911 8.23548H6.37018L4.47622 9.61152L5.19965 7.38504Z" fill="white"/>
<path d="M5.19965 11.6926L5.92307 13.919L4.02911 12.543H6.37018L4.47622 13.919L5.19965 11.6926Z" fill="white"/>
<path d="M5.19965 16.0003L5.92307 18.2268L4.02911 16.8508H6.37018L4.47622 18.2268L5.19965 16.0003Z" fill="white"/>
<path d="M7.73462 0.923523L8.45805 3.15001L6.56409 1.77396H8.90515L7.01119 3.15001L7.73462 0.923523Z" fill="white"/>
<path d="M7.73444 5.23151L8.45786 7.45799L6.5639 6.08195H8.90497L7.01101 7.45799L7.73444 5.23151Z" fill="white"/>
<path d="M7.73444 9.53903L8.45786 11.7655L6.5639 10.3895H8.90497L7.01101 11.7655L7.73444 9.53903Z" fill="white"/>
<path d="M7.73444 13.8468L8.45786 16.0733L6.5639 14.6972H8.90497L7.01101 16.0733L7.73444 13.8468Z" fill="white"/>
<path d="M7.73462 18.1543L8.45805 20.3808L6.56409 19.0047H8.90515L7.01119 20.3808L7.73462 18.1543Z" fill="white"/>
<path d="M10.2661 3.07761L10.9895 5.30409L9.09552 3.92805H11.4366L9.54262 5.30409L10.2661 3.07761Z" fill="white"/>
<path d="M10.2661 7.38535L10.9895 9.61183L9.09552 8.23579H11.4366L9.54262 9.61183L10.2661 7.38535Z" fill="white"/>
<path d="M10.2661 11.6931L10.9895 13.9196L9.09552 12.5436H11.4366L9.54262 13.9196L10.2661 11.6931Z" fill="white"/>
<path d="M10.2661 16.0009L10.9895 18.2273L9.09552 16.8513H11.4366L9.54262 18.2273L10.2661 16.0009Z" fill="white"/>
<path d="M12.7993 0.923309L13.5227 3.14979L11.6287 1.77375H13.9698L12.0758 3.14979L12.7993 0.923309Z" fill="white"/>
<path d="M12.7994 5.23129L13.5229 7.45778L11.6289 6.08173H13.97L12.076 7.45778L12.7994 5.23129Z" fill="white"/>
<path d="M12.7994 9.53882L13.5229 11.7653L11.6289 10.3893H13.97L12.076 11.7653L12.7994 9.53882Z" fill="white"/>
<path d="M12.7994 13.8466L13.5229 16.073L11.6289 14.697H13.97L12.076 16.073L12.7994 13.8466Z" fill="white"/>
<path d="M12.7994 18.1543L13.5229 20.3808L11.6289 19.0047H13.97L12.076 20.3808L12.7994 18.1543Z" fill="white"/>
<path d="M15.3344 3.07761L16.0578 5.30409L14.1639 3.92805H16.5049L14.611 5.30409L15.3344 3.07761Z" fill="white"/>
<path d="M15.3344 7.38535L16.0578 9.61183L14.1639 8.23579H16.5049L14.611 9.61183L15.3344 7.38535Z" fill="white"/>
<path d="M15.3344 11.6931L16.0578 13.9196L14.1639 12.5436H16.5049L14.611 13.9196L15.3344 11.6931Z" fill="white"/>
<path d="M15.3344 16.0009L16.0578 18.2273L14.1639 16.8513H16.5049L14.611 18.2273L15.3344 16.0009Z" fill="white"/>
<path d="M17.8676 0.923309L18.591 3.14979L16.6971 1.77375H19.0381L17.1442 3.14979L17.8676 0.923309Z" fill="white"/>
<path d="M17.8676 5.23105L18.591 7.45753L16.6971 6.08149H19.0381L17.1442 7.45753L17.8676 5.23105Z" fill="white"/>
<path d="M17.8676 9.53857L18.591 11.7651L16.6971 10.389H19.0381L17.1442 11.7651L17.8676 9.53857Z" fill="white"/>
<path d="M17.8676 13.8463L18.591 16.0728L16.6971 14.6968H19.0381L17.1442 16.0728L17.8676 13.8463Z" fill="white"/>
<path d="M17.8676 18.1541L18.591 20.3806L16.6971 19.0045H19.0381L17.1442 20.3806L17.8676 18.1541Z" fill="white"/>
</g>
<defs>
<clipPath id="clip0_42_515">
<rect width="40" height="40" rx="20" fill="white"/>
</clipPath>
</defs>
</svg>
