<svg width="302" height="314" viewBox="0 0 302 314" fill="none" xmlns="http://www.w3.org/2000/svg">
<rect x="36" y="41.4912" width="257" height="259" rx="128.5" fill="#84A939"/>
<path d="M111.13 22.602C88.1049 28.5712 62.1323 46.6777 45.7382 67.7689C35.9755 80.7021 24.1865 105.773 20.3182 122.884C15.7131 142.583 17.3709 180.984 23.8181 200.086C32.844 227.743 56.4918 256.091 79.9031 270.164C106.2 285.971 126.551 281.637 126.551 285.971C178.361 290.913 82.6471 264.236 73.0431 253.578C63.1753 242.627 35.7912 211.158 29.7125 185.888C26.2127 170.965 26.2127 141.588 29.7125 125.272C39.2911 81.1 73.3687 44.0911 114.814 32.5507C128.998 28.5713 155.523 28.5713 169.707 32.3517C190.338 38.122 210.608 46.4928 226.081 61.8137C239.897 75.1449 246.296 69.5168 230.822 53.002C214.06 35.0945 194.574 28.1732 173.391 22.403C159.76 18.6226 125.682 18.8215 111.13 22.602Z" fill="url(#paint0_linear_136_2001)"/>
<path d="M188.123 284.025C210.963 277.269 236.394 258.281 252.164 236.639C261.544 223.377 272.595 197.915 275.962 180.679C279.99 160.833 273.511 122.879 266.51 104.008C256.681 76.6742 231.844 51.4628 209.191 36.0162C202.797 31.6568 166.661 22.1873 165.924 22.2126C113.996 19.0487 206.814 39.3717 214.221 46.8815C229.435 62.307 254.994 94.6438 261.808 119.692C265.741 134.488 269.525 162.187 266.503 178.615C258.219 223.093 225.239 261.252 184.151 274.208C170.091 278.672 143.579 279.581 129.292 276.289C108.503 271.229 83.311 263.063 67.3986 248.28C53.2011 235.43 56.3453 239.888 72.2927 255.864C89.5694 273.188 104.559 281.318 125.9 286.359C139.635 289.67 173.689 288.303 188.123 284.025Z" fill="url(#paint1_linear_136_2001)"/>
<path d="M177.323 95.8644C168.39 97.2222 161.449 100.085 155.469 104.926C147.987 110.977 142.695 119.242 139.914 129.337C137.995 136.185 137.306 142.502 137.527 150.914C137.724 158.323 138.512 164.226 140.407 172.757L140.948 175.266L139.816 177.568C138.241 180.756 136.346 185.361 135.238 188.608L134.328 191.323L133.909 189.641C130.316 175.797 122.49 155.46 115.598 142.059C109.913 131.02 102.924 119.921 100.93 118.77C99.4043 117.884 97.3123 117.943 95.6634 118.917C94.1621 119.803 88.9445 126.297 88.3538 127.979C87.8862 129.308 87.8862 132.023 88.3292 133.322C88.5015 133.853 89.5598 135.683 90.6427 137.395C105.729 161.245 120.447 202.392 124.508 232.234C124.828 234.655 125.172 237.459 125.271 238.433C125.492 241.001 126.649 243.717 128.027 244.868C129.553 246.196 130.414 246.491 132.408 246.491C134.377 246.491 135.263 246.196 136.764 244.897C138.339 243.569 138.979 241.827 140.48 234.743C143.778 219.424 148.282 203.307 152.195 192.711C154.14 187.516 156.232 182.911 156.847 182.527C157.068 182.409 158.496 182.203 159.973 182.114C169.202 181.465 179.391 177.775 185.568 172.757C187.956 170.809 191.229 167.09 192.804 164.522C195.954 159.327 197.185 155.489 201.442 137.248C202.796 131.433 204.297 125.411 204.79 123.817C206.635 117.914 209.121 112.807 212.124 108.734C213.871 106.402 214.142 105.546 213.945 103.126C213.797 101.384 213.059 100.026 211.804 99.2589C210.672 98.58 204.642 97.1632 199.227 96.2777C193.911 95.4512 181.704 95.2151 177.323 95.8644ZM194.182 101.059C198.661 101.473 208.604 103.303 209.367 103.864C209.466 103.952 208.826 105.044 207.964 106.343C204.814 111.007 202.476 115.73 200.876 120.659C200.384 122.105 198.76 128.629 197.259 135.122C193.173 152.597 192.238 155.726 189.752 160.212C188.275 162.869 185.298 166.47 183.107 168.241C177.225 172.993 168.685 175.974 158.299 176.919C154.041 177.303 154.164 177.214 152.54 180.195C147.642 189.228 140.48 212.605 135.854 234.714C135.361 237.075 134.844 239.259 134.697 239.584C133.762 241.798 131.054 241.798 130.095 239.555C129.947 239.2 129.652 237.341 129.455 235.422C126.477 208.178 113.777 169.303 99.1336 142.502C97.7061 139.904 95.6142 136.303 94.482 134.473C93.3499 132.673 92.4147 130.931 92.4147 130.636C92.4147 130.341 93.596 128.599 95.0727 126.769C97.1154 124.201 97.8538 123.463 98.346 123.463C98.8628 123.463 99.4043 124.083 101.201 126.769C114.393 146.693 126.28 174.971 131.399 198.762C132.359 203.189 132.679 203.75 134.278 203.75C135.46 203.75 136.1 203.042 136.469 201.33C138.413 192.297 141.44 184.239 146.166 175.768C157.019 156.109 170.949 139.284 187.857 125.382C191.327 122.548 191.844 121.338 190.392 119.596C189.161 118.12 188.472 118.357 184.731 121.397C176.585 128.038 170.506 134.03 163.197 142.62C156.502 150.53 150.842 158.323 146.092 166.204L144.221 169.303L143.557 166.057C139.939 148.051 141.49 133.41 148.307 121.072C150.374 117.324 154.976 111.863 158.25 109.236C167.061 102.181 178.406 99.5836 194.182 101.059Z" fill="#252525" stroke="black" stroke-width="2"/>
<defs>
<linearGradient id="paint0_linear_136_2001" x1="-165.317" y1="-38.5331" x2="228.331" y2="26.3564" gradientUnits="userSpaceOnUse">
<stop offset="0.288243" stop-color="#A0522D" stop-opacity="0"/>
<stop offset="0.723095" stop-color="#F4A460"/>
</linearGradient>
<linearGradient id="paint1_linear_136_2001" x1="464.392" y1="335.528" x2="71.2734" y2="282.628" gradientUnits="userSpaceOnUse">
<stop offset="0.288243" stop-color="#A0522D" stop-opacity="0"/>
<stop offset="0.723095" stop-color="#F4A460"/>
</linearGradient>
</defs>
</svg>
